SplineFontDB: 3.2
FontName: Samim
FullName: Samim
FamilyName: Samim
Weight: Regular
Copyright: Copyright (c) 2003 by Bitstream, Inc. All Rights Reserved.\nDejaVu changes are in public domain\nCopyright (c) 2015 by Saber Rastikerdar. All Rights Reserved.\nNon-Arabic(Latin) glyphs and data are imported from Open Sans font under the Apache License, Version 2.0.
Version: 4.0.5
ItalicAngle: 0
UnderlinePosition: -500
UnderlineWidth: 100
Ascent: 1638
Descent: 410
InvalidEm: 0
LayerCount: 2
Layer: 0 0 "Back" 1
Layer: 1 0 "Fore" 0
PreferredKerning: 4
XUID: [1021 502 1027637223 12039989]
UniqueID: 4115804
UseUniqueID: 1
FSType: 0
OS2Version: 1
OS2_WeightWidthSlopeOnly: 0
OS2_UseTypoMetrics: 1
CreationTime: 1431850356
ModificationTime: 1586862538
PfmFamily: 33
TTFWeight: 400
TTFWidth: 5
LineGap: 0
VLineGap: 0
Panose: 2 11 6 3 3 8 4 2 2 4
OS2TypoAscent: 2150
OS2TypoAOffset: 0
OS2TypoDescent: -1050
OS2TypoDOffset: 0
OS2TypoLinegap: 0
OS2WinAscent: 2150
OS2WinAOffset: 0
OS2WinDescent: 1050
OS2WinDOffset: 0
HheadAscent: 2150
HheadAOffset: 0
HheadDescent: -1050
HheadDOffset: 0
OS2SubXSize: 1331
OS2SubYSize: 1433
OS2SubXOff: 0
OS2SubYOff: 286
OS2SupXSize: 1331
OS2SupYSize: 1433
OS2SupXOff: 0
OS2SupYOff: 983
OS2StrikeYSize: 102
OS2StrikeYPos: 530
OS2CapHeight: 1638
OS2XHeight: 1082
OS2Vendor: '    '
OS2CodePages: 00000041.20080000
OS2UnicodeRanges: 80002003.80000000.00000008.00000000
Lookup: 1 9 0 "Single Substitution 1" { "Single Substitution 1 subtable"  } []
Lookup: 1 9 0 "'fina' Terminal Forms in Arabic lookup 9" { "'fina' Terminal Forms in Arabic lookup 9 subtable"  } ['fina' ('DFLT' <'dflt' > 'arab' <'FAR ' 'KUR ' 'URD ' 'dflt' > ) ]
Lookup: 1 9 0 "'medi' Medial Forms in Arabic lookup 11" { "'medi' Medial Forms in Arabic lookup 11 subtable"  } ['medi' ('DFLT' <'dflt' > 'arab' <'FAR ' 'KUR ' 'URD ' 'dflt' > ) ]

StartChar: exclam
Encoding: 33 33 1
GlifName: exclam
Width: 560
VWidth: 2170
GlyphClass: 2
Flags: HW
LayerCount: 2
Fore
SplineSet
150 130 m 0
 150 202 208 260 280 260 c 0
 352 260 410 202 410 130 c 0
 410 58 352 0 280 0 c 0
 208 0 150 58 150 130 c 0
189 1380 m 1
 371 1380 l 5
 339 424 l 1
 221 424 l 1
 189 1380 l 1
EndSplineSet
EndChar

StartChar: period
Encoding: 46 46 2
GlifName: period
Width: 560
VWidth: 2170
GlyphClass: 2
Flags: HW
LayerCount: 2
Fore
SplineSet
150 130 m 4
 150 202 208 260 280 260 c 4
 352 260 410 202 410 130 c 4
 410 58 352 0 280 0 c 4
 208 0 150 58 150 130 c 4
EndSplineSet
EndChar

StartChar: colon
Encoding: 58 58 3
GlifName: colon
Width: 560
VWidth: 2170
GlyphClass: 2
Flags: HW
LayerCount: 2
Fore
SplineSet
150 730 m 4
 150 802 208 860 280 860 c 4
 352 860 410 802 410 730 c 4
 410 658 352 600 280 600 c 4
 208 600 150 658 150 730 c 4
150 130 m 0
 150 202 208 260 280 260 c 0
 352 260 410 202 410 130 c 0
 410 58 352 0 280 0 c 0
 208 0 150 58 150 130 c 0
EndSplineSet
EndChar

StartChar: uni060C
Encoding: 1548 1548 5
GlifName: afii57388
Width: 543
VWidth: 2177
GlyphClass: 2
Flags: HW
LayerCount: 2
Fore
SplineSet
280 0 m 6
 193 0 150 39 150 117 c 6
 150 188 l 6
 150 355 225 496 375 611 c 5
 443 577 l 5
 345 469 294 365 292 265 c 5
 308 265 l 6
 373 265 406 228 406 153 c 6
 406 116 l 6
 406 39 369 0 294 0 c 6
 280 0 l 6
EndSplineSet
EndChar

StartChar: uni0615
Encoding: 1557 1557 6
GlifName: uni0615
Width: 6
VWidth: 2317
GlyphClass: 4
Flags: HW
AnchorPoint: "Anchor-10" 565.891 1423.75 mark 0
AnchorPoint: "Anchor-9" 565.891 1423.75 mark 0
AnchorPoint: "Anchor-1" 451.891 2048.68 basemark 0
AnchorPoint: "Anchor-1" 565.891 1423.75 mark 0
LayerCount: 2
Fore
SplineSet
615 1541 m 2
 716.469726562 1541 773.200195312 1558.23335314 773.200195312 1629.60839844 c 0
 773.200195312 1667.56933594 752.24609375 1701.49609375 704.821289062 1701.49609375 c 0
 649.060546875 1701.49609375 559.558367363 1608.90467122 504 1541 c 1
 615 1541 l 2
486 1620 m 1
 532.527777274 1677.65398488 613.345703125 1786.015625 711.350585938 1786.015625 c 0
 798.8203125 1786.015625 849 1715.00292969 849 1634 c 0
 849 1513 769 1457 613 1457 c 2
 320 1457 l 1
 300 1541 l 1
 411 1541 l 1
 411 1983 l 1
 486 2003 l 1
 486 1620 l 1
EndSplineSet
EndChar

StartChar: uni061B
Encoding: 1563 1563 7
GlifName: uni061B_
Width: 561
VWidth: 2177
GlyphClass: 2
Flags: HW
LayerCount: 2
Fore
SplineSet
280 420 m 2
 193 420 150 459 150 537 c 2
 150 608 l 2
 150 775 225 916 375 1031 c 1
 443 997 l 1
 345 889 294 785 292 685 c 1
 308 685 l 2
 373 685 406 648 406 573 c 2
 406 536 l 2
 406 459 369 420 294 420 c 2
 280 420 l 2
150 130 m 4
 150 202 208 260 280 260 c 4
 352 260 410 202 410 130 c 4
 410 58 352 0 280 0 c 4
 208 0 150 58 150 130 c 4
EndSplineSet
EndChar

StartChar: uni061F
Encoding: 1567 1567 8
GlifName: uni061F_
Width: 845
VWidth: 2170
GlyphClass: 2
Flags: HW
LayerCount: 2
Fore
SplineSet
518 3 m 0
 447.004882812 3 388 60.2109375 388 130 c 0
 388 197.6640625 446.016601562 258 514 258 c 0
 586.123046875 258 643 200.354492188 643 130 c 0
 643 62.88671875 585.79296875 3 518 3 c 0
434 425 m 1
 434 460 l 2
 434 839.865234375 89.9951171875 736.094726562 89.9951171875 1033.06152344 c 4
 89.9951171875 1221.84277344 240.688476562 1380 460 1380 c 4
 573 1380 655 1348 764 1271 c 5
 695 1122 l 5
 613 1175 556 1202 465 1202 c 4
 347 1202 267 1125 267 1027 c 4
 267 842.202148438 601 892.78515625 601 460 c 2
 601 425 l 1
 434 425 l 1
EndSplineSet
EndChar

StartChar: uni0621
Encoding: 1569 1569 9
GlifName: uni0621
Width: 778
VWidth: 2311
GlyphClass: 2
Flags: HW
AnchorPoint: "Anchor-7" 416.54 -59.76 basechar 0
AnchorPoint: "Anchor-10" 370.19 1021.23 basechar 0
LayerCount: 2
Fore
SplineSet
499.264068712 288.745166004 m 0
 544.634483571 288.745166004 587.841796875 306.434570312 687 341 c 1
 687 189 l 1
 91 -26 l 1
 91 121 l 1
 302 203 l 1
 190 233 94.9580078125 320.530273438 94.9580078125 455.19921875 c 0
 94.9580078125 638.998046875 235.92578125 768.407226562 437.138671875 768.407226562 c 0
 472.849609375 768.407226562 531.850585938 761.588867188 594 733 c 1
 594 580 l 1
 539.5 595 481 602.5 438.625 602.5 c 0
 336.182617188 602.5 251.974609375 533.176757812 251.974609375 454.392578125 c 0
 251.974609375 381.251953125 311.537402279 316.26374713 435 294 c 0
 456.539105243 290.686291501 477.391918986 288.745166004 499.264068712 288.745166004 c 0
EndSplineSet
EndChar

StartChar: uni0627
Encoding: 1575 1575 15
GlifName: uni0627
Width: 448
VWidth: 2311
GlyphClass: 2
Flags: HW
AnchorPoint: "Anchor-10" 224.19 1473.38 basechar 0
AnchorPoint: "Anchor-7" 246.61 -210.79 basechar 0
LayerCount: 2
Fore
SplineSet
138 1332 m 5
 311 1387 l 5
 311 2 l 5
 181 2 l 5
 138 1332 l 5
EndSplineSet
Substitution2: "'fina' Terminal Forms in Arabic lookup 9 subtable" uniFE8E
EndChar

StartChar: uni062D
Encoding: 1581 1581 21
GlifName: uni062D_
Width: 1293
VWidth: 2311
GlyphClass: 2
Flags: HW
AnchorPoint: "Anchor-10" 561.59 1127.96 basechar 0
AnchorPoint: "Anchor-7" 674.525 -813.648 basechar 0
LayerCount: 2
Fore
SplineSet
863 559 m 1
 802 583 782.999912899 589.999778288 699 623 c 0
 550.186523438 681.462890625 490.190429688 707 428 707 c 0
 354 707 276 653 195 546 c 1
 80 635 l 1
 184.56640625 781.705078125 288.465820312 883 435 883 c 0
 546.513671875 883 658.072265625 825.1171875 786 766.125976562 c 0
 908.497070312 709.638671875 1056.88476562 629.919921875 1133.98242188 629.919921875 c 4
 1145.87988281 629.919921875 1157.87109375 630.280273438 1170 631 c 1
 1145 450 l 1
 733 391 265 239.674780587 265 -140 c 0
 265 -342.093108351 483.7890625 -460 777 -460 c 0
 909 -460 1033 -444 1151 -410 c 1
 1195 -565 l 1
 1056 -608 918 -629 779 -629 c 0
 403.409179688 -629 95.9999866153 -456.120824538 96 -143 c 0
 96.000016406 240.802276908 451.966796875 475.504882812 863 559 c 1
EndSplineSet
Substitution2: "'fina' Terminal Forms in Arabic lookup 9 subtable" uniFEA2
Substitution2: "'medi' Medial Forms in Arabic lookup 11 subtable" uniFEA4
Substitution2: "'init' Initial Forms in Arabic lookup 13 subtable" uniFEA3
EndChar

StartChar: uni062F
Encoding: 1583 1583 23
GlifName: uni062F_
Width: 982
VWidth: 2311
GlyphClass: 2
Flags: HW
AnchorPoint: "Anchor-10" 444.149 1189.65 basechar 0
AnchorPoint: "Anchor-7" 435.442 -216.688 basechar 0
LayerCount: 2
Fore
SplineSet
98 200 m 1
 183 172 292 158 382 158 c 0
 536 158 607 174 674 224 c 0
 707 248 733 285 733 316 c 0
 733 383 694 467 617 568 c 0
 554 649 469 731 364 811 c 1
 459 956 l 1
 591 857 693 758 764 658 c 0
 848 541 890 427 890 317 c 0
 890 209 831 116 731 56 c 0
 638 0 544 -17 369 -17 c 0
 280 -17 175 -3 97 25 c 1
 98 200 l 1
EndSplineSet
Substitution2: "'fina' Terminal Forms in Arabic lookup 9 subtable" uniFEAA
EndChar

StartChar: uni0631
Encoding: 1585 1585 25
GlifName: uni0631
Width: 797
VWidth: 2317
GlyphClass: 2
Flags: HW
AnchorPoint: "Anchor-7" 256.38 -638.85 basechar 0
AnchorPoint: "Anchor-10" 533.618 857.71 basechar 0
LayerCount: 2
Fore
SplineSet
21 -514 m 1
 -34 -378 l 1
 305.552734375 -353.629882812 536 -191.682617188 536 115 c 0
 536 178 514 291 470 455 c 1
 620 532 l 1
 674 379 701 247 701 137 c 0
 701 -251.780273438 439.75390625 -512.3046875 21 -514 c 1
EndSplineSet
PairPos2: "'kern' Horizontal Kerning lookup 15-2" uniFB7C dx=-110 dy=0 dh=-110 dv=0 dx=0 dy=0 dh=0 dv=0
PairPos2: "'kern' Horizontal Kerning lookup 15-1" uniFEE7 dx=-178 dy=0 dh=-178 dv=0 dx=0 dy=0 dh=0 dv=0
PairPos2: "'kern' Horizontal Kerning lookup 15-2" uniFE8B dx=-178 dy=0 dh=-178 dv=0 dx=0 dy=0 dh=0 dv=0
PairPos2: "'kern' Horizontal Kerning lookup 15-2" uni0640 dx=-178 dy=0 dh=-178 dv=0 dx=0 dy=0 dh=0 dv=0
PairPos2: "'kern' Horizontal Kerning lookup 15-2" uni067E dx=-178 dy=0 dh=-178 dv=0 dx=0 dy=0 dh=0 dv=0
PairPos2: "'kern' Horizontal Kerning lookup 15-2" uni06AF dx=-226 dy=0 dh=-226 dv=0 dx=0 dy=0 dh=0 dv=0
PairPos2: "'kern' Horizontal Kerning lookup 15-2" uniFB92 dx=-226 dy=0 dh=-226 dv=0 dx=0 dy=0 dh=0 dv=0
PairPos2: "'kern' Horizontal Kerning lookup 15-2" uniFB94 dx=-226 dy=0 dh=-226 dv=0 dx=0 dy=0 dh=0 dv=0
PairPos2: "'kern' Horizontal Kerning lookup 15-2" uni0621 dx=-178 dy=0 dh=-178 dv=0 dx=0 dy=0 dh=0 dv=0
PairPos2: "'kern' Horizontal Kerning lookup 15-2" uni0622 dx=-143 dy=0 dh=-143 dv=0 dx=0 dy=0 dh=0 dv=0
PairPos2: "'kern' Horizontal Kerning lookup 15-2" uni0623 dx=-143 dy=0 dh=-143 dv=0 dx=0 dy=0 dh=0 dv=0
PairPos2: "'kern' Horizontal Kerning lookup 15-2" uni0627 dx=-143 dy=0 dh=-143 dv=0 dx=0 dy=0 dh=0 dv=0
PairPos2: "'kern' Horizontal Kerning lookup 15-2" uni0628 dx=-178 dy=0 dh=-178 dv=0 dx=0 dy=0 dh=0 dv=0
PairPos2: "'kern' Horizontal Kerning lookup 15-2" uni0629 dx=-178 dy=0 dh=-178 dv=0 dx=0 dy=0 dh=0 dv=0
PairPos2: "'kern' Horizontal Kerning lookup 15-2" uni062A dx=-178 dy=0 dh=-178 dv=0 dx=0 dy=0 dh=0 dv=0
PairPos2: "'kern' Horizontal Kerning lookup 15-2" uniFE97 dx=-178 dy=0 dh=-178 dv=0 dx=0 dy=0 dh=0 dv=0
PairPos2: "'kern' Horizontal Kerning lookup 15-2" uni062B dx=-178 dy=0 dh=-178 dv=0 dx=0 dy=0 dh=0 dv=0
PairPos2: "'kern' Horizontal Kerning lookup 15-2" uniFE9B dx=-178 dy=0 dh=-178 dv=0 dx=0 dy=0 dh=0 dv=0
PairPos2: "'kern' Horizontal Kerning lookup 15-2" uniFE9F dx=-178 dy=0 dh=-178 dv=0 dx=0 dy=0 dh=0 dv=0
PairPos2: "'kern' Horizontal Kerning lookup 15-2" uniFEA3 dx=-178 dy=0 dh=-178 dv=0 dx=0 dy=0 dh=0 dv=0
PairPos2: "'kern' Horizontal Kerning lookup 15-2" uniFEA7 dx=-178 dy=0 dh=-178 dv=0 dx=0 dy=0 dh=0 dv=0
PairPos2: "'kern' Horizontal Kerning lookup 15-2" uni062F dx=-178 dy=0 dh=-178 dv=0 dx=0 dy=0 dh=0 dv=0
PairPos2: "'kern' Horizontal Kerning lookup 15-2" uni0630 dx=-178 dy=0 dh=-178 dv=0 dx=0 dy=0 dh=0 dv=0
PairPos2: "'kern' Horizontal Kerning lookup 15-2" uni0633 dx=-178 dy=0 dh=-178 dv=0 dx=0 dy=0 dh=0 dv=0
PairPos2: "'kern' Horizontal Kerning lookup 15-2" uniFEB3 dx=-178 dy=0 dh=-178 dv=0 dx=0 dy=0 dh=0 dv=0
PairPos2: "'kern' Horizontal Kerning lookup 15-2" uni0634 dx=-178 dy=0 dh=-178 dv=0 dx=0 dy=0 dh=0 dv=0
PairPos2: "'kern' Horizontal Kerning lookup 15-2" uniFEB7 dx=-178 dy=0 dh=-178 dv=0 dx=0 dy=0 dh=0 dv=0
PairPos2: "'kern' Horizontal Kerning lookup 15-2" uni0635 dx=-178 dy=0 dh=-178 dv=0 dx=0 dy=0 dh=0 dv=0
PairPos2: "'kern' Horizontal Kerning lookup 15-2" uniFEBB dx=-178 dy=0 dh=-178 dv=0 dx=0 dy=0 dh=0 dv=0
PairPos2: "'kern' Horizontal Kerning lookup 15-2" uni0636 dx=-178 dy=0 dh=-178 dv=0 dx=0 dy=0 dh=0 dv=0
PairPos2: "'kern' Horizontal Kerning lookup 15-2" uniFEBF dx=-178 dy=0 dh=-178 dv=0 dx=0 dy=0 dh=0 dv=0
PairPos2: "'kern' Horizontal Kerning lookup 15-2" uni0637 dx=-178 dy=0 dh=-178 dv=0 dx=0 dy=0 dh=0 dv=0
PairPos2: "'kern' Horizontal Kerning lookup 15-2" uniFEC3 dx=-178 dy=0 dh=-178 dv=0 dx=0 dy=0 dh=0 dv=0
PairPos2: "'kern' Horizontal Kerning lookup 15-2" uni0638 dx=-178 dy=0 dh=-178 dv=0 dx=0 dy=0 dh=0 dv=0
PairPos2: "'kern' Horizontal Kerning lookup 15-2" uniFEC7 dx=-178 dy=0 dh=-178 dv=0 dx=0 dy=0 dh=0 dv=0
PairPos2: "'kern' Horizontal Kerning lookup 15-2" uniFECB dx=-178 dy=0 dh=-178 dv=0 dx=0 dy=0 dh=0 dv=0
PairPos2: "'kern' Horizontal Kerning lookup 15-2" uniFECF dx=-178 dy=0 dh=-178 dv=0 dx=0 dy=0 dh=0 dv=0
PairPos2: "'kern' Horizontal Kerning lookup 15-2" uni0641 dx=-178 dy=0 dh=-178 dv=0 dx=0 dy=0 dh=0 dv=0
PairPos2: "'kern' Horizontal Kerning lookup 15-2" uniFED3 dx=-178 dy=0 dh=-178 dv=0 dx=0 dy=0 dh=0 dv=0
PairPos2: "'kern' Horizontal Kerning lookup 15-2" uni0642 dx=-60 dy=0 dh=-60 dv=0 dx=0 dy=0 dh=0 dv=0
PairPos2: "'kern' Horizontal Kerning lookup 15-2" uniFED7 dx=-178 dy=0 dh=-178 dv=0 dx=0 dy=0 dh=0 dv=0
PairPos2: "'kern' Horizontal Kerning lookup 15-2" uni0643 dx=-143 dy=0 dh=-143 dv=0 dx=0 dy=0 dh=0 dv=0
PairPos2: "'kern' Horizontal Kerning lookup 15-2" uniFEDB dx=-226 dy=0 dh=-226 dv=0 dx=0 dy=0 dh=0 dv=0
PairPos2: "'kern' Horizontal Kerning lookup 15-2" uni0644 dx=-60 dy=0 dh=-60 dv=0 dx=0 dy=0 dh=0 dv=0
PairPos2: "'kern' Horizontal Kerning lookup 15-2" uniFEDF dx=-143 dy=0 dh=-143 dv=0 dx=0 dy=0 dh=0 dv=0
PairPos2: "'kern' Horizontal Kerning lookup 15-2" uniFEFB dx=-143 dy=0 dh=-143 dv=0 dx=0 dy=0 dh=0 dv=0
PairPos2: "'kern' Horizontal Kerning lookup 15-2" uni0645 dx=-178 dy=0 dh=-178 dv=0 dx=0 dy=0 dh=0 dv=0
PairPos2: "'kern' Horizontal Kerning lookup 15-2" uniFEE3 dx=-178 dy=0 dh=-178 dv=0 dx=0 dy=0 dh=0 dv=0
PairPos2: "'kern' Horizontal Kerning lookup 15-2" uni0646 dx=-60 dy=0 dh=-60 dv=0 dx=0 dy=0 dh=0 dv=0
PairPos2: "'kern' Horizontal Kerning lookup 15-2" uni0647 dx=-178 dy=0 dh=-178 dv=0 dx=0 dy=0 dh=0 dv=0
PairPos2: "'kern' Horizontal Kerning lookup 15-2" uniFEEB dx=-178 dy=0 dh=-178 dv=0 dx=0 dy=0 dh=0 dv=0
PairPos2: "'kern' Horizontal Kerning lookup 15-2" uni0649 dx=-60 dy=0 dh=-60 dv=0 dx=0 dy=0 dh=0 dv=0
PairPos2: "'kern' Horizontal Kerning lookup 15-2" uni0626 dx=-60 dy=0 dh=-60 dv=0 dx=0 dy=0 dh=0 dv=0
PairPos2: "'kern' Horizontal Kerning lookup 15-2" uni064A dx=-60 dy=0 dh=-60 dv=0 dx=0 dy=0 dh=0 dv=0
PairPos2: "'kern' Horizontal Kerning lookup 15-2" uni06A9 dx=-226 dy=0 dh=-226 dv=0 dx=0 dy=0 dh=0 dv=0
PairPos2: "'kern' Horizontal Kerning lookup 15-2" uniFB8E dx=-226 dy=0 dh=-226 dv=0 dx=0 dy=0 dh=0 dv=0
PairPos2: "'kern' Horizontal Kerning lookup 15-2" uniFB90 dx=-226 dy=0 dh=-226 dv=0 dx=0 dy=0 dh=0 dv=0
PairPos2: "'kern' Horizontal Kerning lookup 15-2" uniFBFE dx=30 dy=0 dh=30 dv=0 dx=0 dy=0 dh=0 dv=0
PairPos2: "'kern' Horizontal Kerning lookup 15-2" uni0631 dx=-30 dy=0 dh=-30 dv=0 dx=0 dy=0 dh=0 dv=0
PairPos2: "'kern' Horizontal Kerning lookup 15-2" uni0632 dx=-30 dy=0 dh=-30 dv=0 dx=0 dy=0 dh=0 dv=0
PairPos2: "'kern' Horizontal Kerning lookup 15-2" uni0624 dx=-30 dy=0 dh=-30 dv=0 dx=0 dy=0 dh=0 dv=0
PairPos2: "'kern' Horizontal Kerning lookup 15-2" uni0648 dx=-30 dy=0 dh=-30 dv=0 dx=0 dy=0 dh=0 dv=0
PairPos2: "'kern' Horizontal Kerning lookup 15-2" uni0698 dx=-40 dy=0 dh=-40 dv=0 dx=0 dy=0 dh=0 dv=0
PairPos2: "'kern' Horizontal Kerning lookup 15-5" uni06C0 dx=-178 dy=0 dh=-178 dv=0 dx=0 dy=0 dh=0 dv=0
Substitution2: "'fina' Terminal Forms in Arabic lookup 9 subtable" uniFEAE
EndChar

StartChar: uni0633
Encoding: 1587 1587 27
GlifName: uni0633
Width: 2391
VWidth: 2311
GlyphClass: 2
Flags: HW
AnchorPoint: "Anchor-7" 686.95 -734.09 basechar 0
AnchorPoint: "Anchor-10" 1693.64 1006.47 basechar 0
LayerCount: 2
Fore
SplineSet
1708 149 m 1
 1656 50 1578 0 1474 0 c 0
 1413 0 1355 17 1299 51 c 1
 1297 -327 1092 -518 686 -518 c 0
 323 -518 98 -339 98 17 c 0
 98 156 128 294 190 434 c 1
 339 379 l 1
 286 249 259 134 259 35 c 0
 259 -218 403 -345 690 -345 c 0
 998 -345 1152 -212 1152 54 c 0
 1152 148 1116 267 1045 411 c 1
 1196 495 l 1
 1278 282 l 2
 1306 214 1369 180 1469 180 c 0
 1564 180 1618 245 1631 374 c 2
 1650 564 l 5
 1768 564 l 5
 1793 372 l 2
 1809.72070312 243.584960938 1873.46875 181.98828125 1974.32324219 181.98828125 c 0
 2081.78222656 181.98828125 2130 223.895507812 2130 384 c 0
 2130 462.544921875 2097.50097656 617.596679688 2082 661 c 1
 2239 711 l 1
 2273.29101562 614.0390625 2293 522.408203125 2293 396 c 0
 2293 146.112304688 2194.88476562 1 1982 1 c 0
 1848 1 1756 51 1708 149 c 1
EndSplineSet
Substitution2: "'fina' Terminal Forms in Arabic lookup 9 subtable" uniFEB2
Substitution2: "'medi' Medial Forms in Arabic lookup 11 subtable" uniFEB4
Substitution2: "'init' Initial Forms in Arabic lookup 13 subtable" uniFEB3
EndChar

StartChar: uni0635
Encoding: 1589 1589 29
GlifName: uni0635
Width: 2504
VWidth: 2311
GlyphClass: 2
Flags: HW
AnchorPoint: "Anchor-7" 686.95 -714.09 basechar 0
AnchorPoint: "Anchor-10" 1955.64 1084.47 basechar 0
LayerCount: 2
Fore
SplineSet
2239 411 m 0
 2239 517 2164 578 2060 578 c 0
 1827 577 1527 180 1527 180 c 1
 1710 180 l 2
 1980 180 2239 220 2239 411 c 0
688 -518 m 0
 323 -518 98 -340 98 18 c 0
 98 156 128 295 190 434 c 1
 339 379 l 1
 286 249 259 134 259 35 c 0
 259 -219 403 -345 691 -345 c 0
 998 -345 1152 -212 1152 53 c 0
 1152 147 1116 267 1045 411 c 1
 1196 495 l 1
 1277 282 l 2
 1292 245 1310 209 1342 206 c 1
 1342 206 1721 758 2060 758 c 0
 2275 758 2406 623 2406 411 c 0
 2406 115 2121 0 1697 0 c 2
 1531 0 l 2
 1440 0 1363 17 1299 51 c 1
 1297 -327 1093 -517 688 -518 c 0
EndSplineSet
Substitution2: "'fina' Terminal Forms in Arabic lookup 9 subtable" uniFEBA
Substitution2: "'medi' Medial Forms in Arabic lookup 11 subtable" uniFEBC
Substitution2: "'init' Initial Forms in Arabic lookup 13 subtable" uniFEBB
EndChar

StartChar: uni0637
Encoding: 1591 1591 31
GlifName: uni0637
Width: 1564
VWidth: 2311
GlyphClass: 2
Flags: HW
AnchorPoint: "Anchor-10" 345.043 1476.92 basechar 0
AnchorPoint: "Anchor-7" 705.363 -234.3 basechar 0
LayerCount: 2
Fore
SplineSet
1301 411 m 0
 1301 517 1226 578 1122 578 c 0
 889 577 589 180 589 180 c 1
 772 180 l 2
 1042 180 1301 220 1301 411 c 0
1122 758 m 0
 1337 758 1468 623 1468 411 c 0
 1468 115 1183 0 759 0 c 2
 653 0 l 2
 356 0 181 11 68 32 c 9
 67 180 l 1
 294 180 l 1
 261 1338 l 5
 436 1387 l 5
 436 229 l 1
 436 229 783 758 1122 758 c 0
EndSplineSet
Substitution2: "'fina' Terminal Forms in Arabic lookup 9 subtable" uniFEC2
Substitution2: "'medi' Medial Forms in Arabic lookup 11 subtable" uniFEC4
Substitution2: "'init' Initial Forms in Arabic lookup 13 subtable" uniFEC3
EndChar

StartChar: uni0639
Encoding: 1593 1593 33
GlifName: uni0639
Width: 1232
VWidth: 2311
GlyphClass: 2
Flags: HW
AnchorPoint: "Anchor-7" 680.525 -769.648 basechar 0
AnchorPoint: "Anchor-10" 624.59 1318.96 basechar 0
LayerCount: 2
Fore
SplineSet
96 -143 m 4
 97 72 228 254 411 349 c 5
 303 457 269 565 269 672 c 4
 269 893 429 1043 627 1043 c 4
 766 1043 877 987 958 875 c 5
 866 761 l 5
 799 830 723 864 637 864 c 4
 538 864 431 795 431 683 c 4
 431 631 433.394410765 591.553801087 490 512 c 4
 527 460 584 417 607 417 c 4
 608 417 609.01818752 416.810146758 610 417 c 4
 791 452 857 458 1006 465 c 5
 1006 298 l 5
 925 292 854 285 792 276 c 4
 610 249 475 194 385 109 c 4
 306 34 266 -41 265 -140 c 4
 265 -342.092773438 483.7890625 -460 777 -460 c 4
 879 -460 976 -455 1094 -421 c 5
 1138 -576 l 5
 999 -619 878 -629 779 -629 c 4
 403.409179688 -629 96 -456.12109375 96 -143 c 4
EndSplineSet
Substitution2: "'fina' Terminal Forms in Arabic lookup 9 subtable" uniFECA
Substitution2: "'medi' Medial Forms in Arabic lookup 11 subtable" uniFECC
Substitution2: "'init' Initial Forms in Arabic lookup 13 subtable" uniFECB
EndChar

StartChar: uni0640
Encoding: 1600 1600 35
GlifName: afii57440
Width: 260
VWidth: 2311
GlyphClass: 2
Flags: HW
AnchorPoint: "Anchor-7" 130.44 -176.31 basechar 0
AnchorPoint: "Anchor-10" 136.44 797.15 basechar 0
LayerCount: 2
Fore
SplineSet
267 0 m 2
 -4 0 l 2
 -36 0 -42 25 -42 74 c 2
 -42 108 l 2
 -42 156 -36 180 -4 180 c 2
 267 180 l 2
 279 180 285 156 285 108 c 2
 285 74 l 2
 285 25 279 0 267 0 c 2
EndSplineSet
EndChar

StartChar: uni0643
Encoding: 1603 1603 38
GlifName: uni0643
Width: 1876
VWidth: 2311
GlyphClass: 2
Flags: HW
AnchorPoint: "Anchor-7" 885.06 -201.16 basechar 0
AnchorPoint: "Anchor-10" 958.52 1302.01 basechar 0
LayerCount: 2
Fore
SplineSet
921 180 m 0
 1231.16828625 180 1610.08792166 184.05739478 1598 466 c 2
 1561 1339 l 5
 1738 1387 l 5
 1738 434 l 2
 1738 418 1737 399 1735 375 c 0
 1724 223 1616 114 1410 49 c 0
 1308.65339662 17.8936167839 1139.66308594 0.9697265625 907 0 c 0
 431.671875 0 97.34375 96.9697265625 97.34375 526.849609375 c 0
 97.34375 598.2578125 108.405273438 673.307617188 131 752 c 1
 273 714 l 1
 260.75 631.75 254.625 568.640625 254.625 524.671875 c 0
 254.625 216.485351562 552.630859375 180 921 180 c 0
715 687 m 1
 763.404476322 681.621724853 815.100814896 676 860 676 c 0
 945.046168929 676 1044 709.315139895 1044 769 c 0
 1044 810.810594992 1000.56178309 823.812615631 956 831 c 0
 878.510275505 842.791914597 815.93757215 889.807527017 815.93757215 971.533665162 c 0
 815.93757215 1127.69595435 974.888092897 1165.87577017 1130 1175 c 1
 1130 1082 l 1
 1033.21660797 1075.54777386 912 1047.71838707 912 980 c 0
 912 924.723427546 965.763101592 915.514438504 1024 908 c 0
 1101 896 1140 853 1140 777 c 0
 1140 712 1102 658 1027 615 c 0
 979.387096774 587.887096774 919.966961498 574.330645161 848.161223188 574.330645161 c 0
 808.076440481 574.330645161 760.020497948 580.073769546 715 587 c 1
 715 687 l 1
EndSplineSet
Substitution2: "'fina' Terminal Forms in Arabic lookup 9 subtable" uniFEDA
Substitution2: "'medi' Medial Forms in Arabic lookup 11 subtable" uniFEDC
Substitution2: "'init' Initial Forms in Arabic lookup 13 subtable" uniFEDB
EndChar

StartChar: uni0644
Encoding: 1604 1604 39
GlifName: uni0644
Width: 1377
VWidth: 2311
GlyphClass: 2
Flags: HW
AnchorPoint: "Anchor-7" 682.95 -652.09 basechar 0
AnchorPoint: "Anchor-10" 632.91 1035.85 basechar 0
LayerCount: 2
Fore
SplineSet
671 -315 m 0
 957 -315 1097 -163 1091 142 c 2
 1067 1335 l 5
 1239 1386 l 5
 1239 102 l 2
 1239 -290 1050 -488 668 -488 c 0
 316.918945312 -488 98 -287.573242188 98 48 c 0
 98 170 132 309 200 464 c 1
 349 409 l 1
 296 279 269 164 269 65 c 0
 269 -172.747070312 415.7109375 -315 671 -315 c 0
EndSplineSet
Substitution2: "'fina' Terminal Forms in Arabic lookup 9 subtable" uniFEDE
Substitution2: "'medi' Medial Forms in Arabic lookup 11 subtable" uniFEE0
Substitution2: "'init' Initial Forms in Arabic lookup 13 subtable" uniFEDF
EndChar

StartChar: uni0645
Encoding: 1605 1605 40
GlifName: uni0645
Width: 1166
VWidth: 2311
GlyphClass: 2
Flags: HW
AnchorPoint: "Anchor-10" 605.79 1021.87 basechar 0
AnchorPoint: "Anchor-7" 692.148 -222.569 basechar 0
LayerCount: 2
Fore
SplineSet
481 177 m 1
 510 177 l 1
 654 177 l 1
 735 177 l 2
 825 177 850 181 871 196 c 0
 893 210 921 258 921 298 c 0
 921 384 751 503 626 503 c 0
 477 503 485 346 481 177 c 1
736 0 m 2
 413 0 l 2
 294 0 235 -68 235 -229 c 0
 235 -240 235 -253 236 -265 c 2
 257 -734 l 1
 95 -800 l 1
 95 -216 l 2
 95 -14.8789673605 180.654296875 144.275390625 329 172 c 1
 328 195 327 204 327 225 c 0
 327 492.347829606 415.885742188 691 636 691 c 0
 814 691 1078 485 1078 330 c 0
 1078 257.846679688 1027.9609375 129.985351562 981 78.3798828125 c 0
 932.385742188 24.95703125 871.415039062 0 736 0 c 2
EndSplineSet
Substitution2: "'init' Initial Forms in Arabic lookup 13 subtable" uniFEE3
Substitution2: "'medi' Medial Forms in Arabic lookup 11 subtable" uniFEE4
Substitution2: "'fina' Terminal Forms in Arabic lookup 9 subtable" uniFEE2
EndChar

StartChar: uni0647
Encoding: 1607 1607 42
GlifName: uni0647
Width: 895
VWidth: 2311
GlyphClass: 2
Flags: HW
AnchorPoint: "Anchor-10" 397.3 1116.62 basechar 0
AnchorPoint: "Anchor-7" 453.016 -199.273 basechar 0
LayerCount: 2
Fore
SplineSet
448 181 m 0
 585 181 644 234 644 323 c 0
 644 427 580 481 438 601 c 5
 312 486 251 426 251 323 c 0
 251 228 315 181 448 181 c 0
382 883 m 5
 667 657 801 509 801 320 c 0
 801 119 671 4 448 4 c 0
 233 4 98 108 98 320 c 0
 98 449 164 546 318 711 c 5
 282 742 l 5
 382 883 l 5
EndSplineSet
Substitution2: "'fina' Terminal Forms in Arabic lookup 9 subtable" uniFEEA
Substitution2: "'medi' Medial Forms in Arabic lookup 11 subtable" uniFEEC
Substitution2: "'init' Initial Forms in Arabic lookup 13 subtable" uniFEEB
EndChar

StartChar: uni0648
Encoding: 1608 1608 43
GlifName: uni0648
Width: 878
VWidth: 2311
GlyphClass: 2
Flags: HW
AnchorPoint: "Anchor-7" 316.38 -638.85 basechar 0
AnchorPoint: "Anchor-10" 424.959 1021.28 basechar 0
LayerCount: 2
Fore
SplineSet
436.716796875 543.08203125 m 4
 331.500976562 543.08203125 251.232421875 423.306640625 251.232421875 295.719726562 c 4
 251.232421875 205.899414062 302.536132812 160.989257812 425.666992188 160.989257812 c 4
 558.483398438 160.989257812 620 215 620 215 c 5
 620 406.830078125 564.8359375 543.08203125 436.716796875 543.08203125 c 4
436.065429688 715.01171875 m 4
 645.283203125 715.01171875 780.034179688 525.060546875 780.034179688 171.911132812 c 4
 780.034179688 -273.711718647 509.508789062 -514 101 -514 c 1
 46 -378 l 1
 386 -357 579 -198 613 40 c 5
 613 40 544 -5 416 -5 c 4
 211.345703125 -5 98.9853515625 99.5322265625 98.9853515625 272.520507812 c 4
 98.9853515625 509.342773438 237.78125 715.01171875 436.065429688 715.01171875 c 4
EndSplineSet
Substitution2: "'fina' Terminal Forms in Arabic lookup 9 subtable" uniFEEE
EndChar

StartChar: uni0649
Encoding: 1609 1609 44
GlifName: uni0649
Width: 1490
VWidth: 2311
GlyphClass: 2
Flags: HW
AnchorPoint: "Anchor-10" 628.105 785.314 basechar 0
AnchorPoint: "Anchor-7" 706.429 -647.4 basechar 0
LayerCount: 2
Fore
SplineSet
360 464 m 1
 295.610351562 317.565429688 262.828125 190.233398438 262.828125 61.41015625 c 0
 262.828125 -183.852539062 411.506835938 -306.0234375 708.866210938 -306.0234375 c 0
 973.032226562 -306.0234375 1241.10351562 -208.0703125 1241.10351562 -34.326171875 c 0
 1241.10351562 -1.4423828125 1214.03613281 0 1139 0 c 2
 1028 0 l 2
 857 1 772 68 772 202 c 0
 773.590698958 437.409484606 979.467773438 693.481445312 1240.36523438 693.481445312 c 4
 1293.08203125 693.481445312 1347.78613281 682.176757812 1403 657 c 1
 1351 496 l 1
 1311.3671875 507.584960938 1274.39257812 512.807617188 1240.18554688 512.807617188 c 0
 1049.98242188 512.807617188 935.357421875 351.342575337 935.357421875 224.34375 c 0
 935.357421875 187.086914062 976.254882812 173.259765625 1045 173 c 2
 1160 173 l 2
 1328.18261719 173 1393 120.618164062 1393 1 c 0
 1393 -312.401367188 1088.953125 -482 708 -482 c 0
 321.86328125 -482 96.982421875 -302.249023438 96.982421875 58.6494140625 c 0
 96.982421875 190.654296875 131.98828125 346.092773438 216 524 c 1
 360 464 l 1
EndSplineSet
Substitution2: "'fina' Terminal Forms in Arabic lookup 9 subtable" uniFEF0
Substitution2: "'medi' Medial Forms in Arabic lookup 11 subtable" uniFBE9
Substitution2: "'init' Initial Forms in Arabic lookup 13 subtable" uniFBE8
EndChar

StartChar: uni064B
Encoding: 1611 1611 46
GlifName: uni064B_
Width: -26
VWidth: 2316
GlyphClass: 4
Flags: HW
AnchorPoint: "Anchor-10" 583.551 1123.65 mark 0
AnchorPoint: "Anchor-9" 583.551 1123.65 mark 0
AnchorPoint: "Anchor-1" 553.285 1596.25 basemark 0
AnchorPoint: "Anchor-1" 583.551 1123.65 mark 0
LayerCount: 2
Fore
SplineSet
327 1076 m 5
 327 1180 l 5
 782 1366 l 5
 782 1263 l 5
 327 1076 l 5
327 1288 m 5
 327 1392 l 5
 782 1578 l 5
 782 1475 l 5
 327 1288 l 5
EndSplineSet
EndChar

StartChar: uni064C
Encoding: 1612 1612 47
GlifName: uni064C_
Width: -26
VWidth: 2316
GlyphClass: 4
Flags: HW
AnchorPoint: "Anchor-10" 680.906 1278.67 mark 0
AnchorPoint: "Anchor-9" 680.906 1278.67 mark 0
AnchorPoint: "Anchor-1" 637.739 1852.46 basemark 0
AnchorPoint: "Anchor-1" 680.906 1278.67 mark 0
LayerCount: 2
Fore
SplineSet
489 1629 m 0
 489 1726.34403608 557.578720581 1791 652 1791 c 0
 746.9412073 1791 814 1727.26136914 814 1628 c 0
 814 1589 804 1547 787 1507 c 1
 804 1504 819 1503 830 1503 c 1
 830 1427 l 1
 810 1428 786 1430 754 1436 c 1
 690.818294178 1285.56736709 597.606815014 1210.99202128 471.867219481 1210.99202128 c 0
 339.267824808 1210.99202128 270.984042553 1303.99468085 268 1490 c 1
 347 1504 l 1
 350 1360 392 1289 473 1289 c 0
 547 1289 614 1343 673 1448 c 1
 567.206830152 1485.02760945 489 1533.83885907 489 1629 c 0
709 1523 m 1
 723.053510163 1555.79152371 736 1594.57522464 736 1627 c 0
 736 1675.05260976 699.641537636 1711 656 1711 c 0
 605.751193998 1711 569 1677.13488171 569 1625 c 0
 569 1567.8418395 644.003567546 1540.204938 709 1523 c 1
EndSplineSet
EndChar

StartChar: uni064D
Encoding: 1613 1613 48
GlifName: uni064D_
Width: -26
VWidth: 2316
GlyphClass: 4
Flags: HW
AnchorPoint: "Anchor-7" 542.278 32.7109 mark 0
AnchorPoint: "Anchor-6" 542.278 32.7109 mark 0
AnchorPoint: "Anchor-0" 592.022 -407.025 basemark 0
AnchorPoint: "Anchor-0" 542.278 32.7109 mark 0
LayerCount: 2
Fore
SplineSet
332 -446 m 5
 332 -342 l 5
 788 -156 l 5
 788 -260 l 5
 332 -446 l 5
332 -234 m 5
 332 -130 l 5
 788 56 l 5
 788 -48 l 5
 332 -234 l 5
EndSplineSet
EndChar

StartChar: uni064E
Encoding: 1614 1614 49
GlifName: uni064E_
Width: -26
VWidth: 2316
GlyphClass: 4
Flags: HW
AnchorPoint: "Anchor-10" 545.66 1397.63 mark 0
AnchorPoint: "Anchor-9" 545.66 1397.63 mark 0
AnchorPoint: "Anchor-1" 541.396 1651.77 basemark 0
AnchorPoint: "Anchor-1" 545.66 1397.63 mark 0
LayerCount: 2
Fore
SplineSet
296 1349 m 5
 296 1453 l 5
 752 1639 l 5
 752 1535 l 5
 296 1349 l 5
EndSplineSet
EndChar

StartChar: uni064F
Encoding: 1615 1615 50
GlifName: uni064F_
Width: -26
VWidth: 2316
GlyphClass: 4
Flags: HW
AnchorPoint: "Anchor-10" 588.295 1344.37 mark 0
AnchorPoint: "Anchor-9" 588.295 1344.37 mark 0
AnchorPoint: "Anchor-1" 542.134 1865.4 basemark 0
AnchorPoint: "Anchor-1" 588.295 1344.37 mark 0
LayerCount: 2
Fore
SplineSet
723 1427 m 1
 695 1427 669 1429 643 1433 c 1
 578 1342 444 1288 280 1279 c 1
 280 1357 l 1
 411 1369 519 1405 566 1455 c 1
 474.464114966 1471.64288819 380 1532.46344456 380 1626 c 0
 380 1723.76653486 448.787416907 1788 543 1788 c 0
 637.483259282 1788 706 1723.30209735 706 1625 c 0
 706 1586 697 1547 680 1506 c 1
 693 1504 708 1502 723 1502 c 1
 723 1427 l 1
600 1520 m 1
 614.053510163 1552.79152371 627 1591.57522464 627 1624 c 0
 627 1672.52693762 591.420717666 1707 547 1707 c 0
 496.353069173 1707 460 1674.44739485 460 1622 c 0
 460 1564.8418395 535.003567546 1537.204938 600 1520 c 1
EndSplineSet
EndChar

StartChar: uni0650
Encoding: 1616 1616 51
GlifName: uni0650
Width: -26
VWidth: 2316
GlyphClass: 4
Flags: HW
AnchorPoint: "Anchor-7" 571.144 -44.8242 mark 0
AnchorPoint: "Anchor-6" 571.144 -44.8242 mark 0
AnchorPoint: "Anchor-0" 619.091 -324.624 basemark 0
AnchorPoint: "Anchor-0" 571.144 -44.8242 mark 0
LayerCount: 2
Fore
SplineSet
343 -346 m 5
 343 -242 l 5
 798 -56 l 5
 798 -159 l 5
 343 -346 l 5
EndSplineSet
EndChar

StartChar: uni0651
Encoding: 1617 1617 52
GlifName: uni0651
Width: -26
VWidth: 2393
GlyphClass: 4
Flags: HW
AnchorPoint: "Anchor-10" 598.801 1453.71 mark 0
AnchorPoint: "Anchor-9" 598.801 1453.71 mark 0
AnchorPoint: "Anchor-1" 570.087 1839.1 basemark 0
AnchorPoint: "Anchor-1" 598.801 1453.71 mark 0
LayerCount: 2
Fore
SplineSet
608 1758 m 1
 609 1730 609 1703 611 1676 c 0
 615.505859375 1615.16699219 637 1574 681 1574 c 0
 728 1574 748 1608 748 1675 c 0
 748 1700 742 1740 731 1793 c 1
 819 1807 l 1
 831 1766 837 1725 837 1685 c 0
 837 1550 788 1483 690 1482 c 0
 647 1482 599 1503 581 1539 c 1
 561 1461 493 1438 432 1438 c 0
 338.35345057 1438 293.873817788 1498.89504214 293.873817788 1616.0779836 c 0
 293.873817788 1652.22620263 298.760716473 1685.78929374 307 1716 c 1
 385 1703 l 1
 378 1672 376 1644 376 1620 c 0
 376 1564 399 1536 444 1536 c 0
 528.920476329 1536 531.4140625 1597.34667969 531.4140625 1719.33203125 c 0
 531.4140625 1731.65429688 531.29296875 1744.52734375 531 1758 c 1
 608 1758 l 1
EndSplineSet
EndChar

StartChar: uni0652
Encoding: 1618 1618 53
GlifName: uni0652
Width: -26
VWidth: 2316
GlyphClass: 4
Flags: HW
AnchorPoint: "Anchor-10" 605.219 1271.43 mark 0
AnchorPoint: "Anchor-9" 605.219 1271.43 mark 0
AnchorPoint: "Anchor-1" 589.537 1682.66 basemark 0
AnchorPoint: "Anchor-1" 605.219 1271.43 mark 0
LayerCount: 2
Fore
SplineSet
421 1462 m 128
 421 1558 498 1635 594 1635 c 128
 690 1635 768 1558 768 1462 c 128
 768 1366 690 1288 594 1288 c 128
 498 1288 421 1366 421 1462 c 128
597 1367 m 0
 649 1367 691 1410 691 1462 c 0
 691 1514 649 1555 597 1555 c 0
 545.593604198 1555 502.982421875 1512.953125 502.982421875 1461.77734375 c 0
 502.982421875 1408.14550781 543.386150074 1367 597 1367 c 0
EndSplineSet
EndChar

StartChar: uni0653
Encoding: 1619 1619 54
GlifName: uni0653
Width: 0
VWidth: 2317
GlyphClass: 4
Flags: HW
AnchorPoint: "Anchor-10" 431.25 1353.11 mark 0
AnchorPoint: "Anchor-9" 431.25 1353.11 mark 0
AnchorPoint: "Anchor-1" 469.41 1723.53 basemark 0
AnchorPoint: "Anchor-1" 431.25 1353.11 mark 0
LayerCount: 2
Fore
SplineSet
163 1323 m 5
 78.4404296875 1424.08007812 l 1
 148.960785975 1536.92908877 233.407400559 1584.78911482 331.780273438 1567.66015625 c 2
 466.400390625 1544.21972656 l 2
 518.133463542 1535.40657552 583.146809896 1554.48665365 661.440429688 1601.45996094 c 1
 726.099609375 1486.12011719 l 1
 657.366536458 1423.3733724 574.286783854 1397.10677083 476.860351562 1407.3203125 c 2
 330.719726562 1422.51953125 l 2
 268.239908854 1428.83984375 212.333333333 1395.66666667 163 1323 c 5
EndSplineSet
EndChar

StartChar: uni0657
Encoding: 1623 1623 57
GlifName: uni0657
Width: -26
VWidth: 2316
GlyphClass: 4
Flags: HW
AnchorPoint: "Anchor-10" 513.285 1400.55 mark 0
AnchorPoint: "Anchor-9" 513.285 1400.55 mark 0
AnchorPoint: "Anchor-1" 537.285 2069.85 basemark 0
AnchorPoint: "Anchor-1" 513.285 1400.55 mark 0
LayerCount: 2
Fore
SplineSet
265 1805 m 1
 305 1804 348 1801 395 1796 c 1
 396 1797 l 2
 496 1939 625 2018 785 2033 c 1
 785 1955 l 1
 662 1935 562 1876 486 1778 c 1
 573.073233818 1752.51515108 658 1697.36135892 658 1599 c 0
 658 1507.71378279 593.059658194 1438 501 1438 c 0
 408.64267729 1438 332 1502.56128158 332 1603 c 0
 332 1632 339 1672 355 1722 c 1
 328 1724 299 1726 265 1726 c 1
 265 1805 l 1
501 1516 m 0
 549.036312445 1516 577 1548.90280457 577 1597 c 0
 577 1658.28540997 503.060368911 1693.27134074 437 1709 c 1
 419 1666 410 1632 410 1605 c 0
 410 1552.84187884 451.285616311 1516 501 1516 c 0
EndSplineSet
EndChar

StartChar: uni065A
Encoding: 1626 1626 58
GlifName: uni065A_
Width: 1135
VWidth: 2316
GlyphClass: 4
Flags: HW
AnchorPoint: "Anchor-10" 573.285 1350.55 mark 0
AnchorPoint: "Anchor-9" 573.285 1350.55 mark 0
AnchorPoint: "Anchor-1" 571.012 1862.38 basemark 0
AnchorPoint: "Anchor-1" 573.285 1350.55 mark 0
LayerCount: 2
Fore
SplineSet
502 1444 m 5
 309 1768 l 5
 433 1768 l 5
 573 1528 l 5
 714 1768 l 5
 838 1768 l 5
 644 1444 l 5
 502 1444 l 5
EndSplineSet
EndChar

StartChar: uni0660
Encoding: 1632 1632 59
GlifName: afii57392
Width: 866
VWidth: 2311
GlyphClass: 2
Flags: HW
LayerCount: 2
Fore
SplineSet
433 624.959960938 m 132
 359.559570312 624.959960938 299.080078125 563.400390625 299.080078125 489.959960938 c 132
 299.080078125 416.51953125 359.559570312 356.040039062 433 356.040039062 c 132
 506.440429688 356.040039062 566.919921875 416.51953125 566.919921875 489.959960938 c 132
 566.919921875 563.400390625 506.440429688 624.959960938 433 624.959960938 c 132
433 209 m 132
 278 209 150 339 150 494 c 132
 150 649 278 778 433 778 c 132
 588 778 716 649 716 494 c 132
 716 339 588 209 433 209 c 132
EndSplineSet
EndChar

StartChar: uni0661
Encoding: 1633 1633 60
GlifName: afii57393
Width: 756
VWidth: 2311
GlyphClass: 2
Flags: HW
LayerCount: 2
Fore
SplineSet
358 3 m 2
 358 512.907226562 279.02734375 938.547851562 125 1270 c 1
 279 1344 l 1
 467.362304688 903.8671875 521 537.72265625 521 0 c 1
 358 0 l 1
 358 3 l 2
EndSplineSet
EndChar

StartChar: uni0662
Encoding: 1634 1634 61
GlifName: afii57394
Width: 1126
VWidth: 2170
GlyphClass: 2
Flags: HW
LayerCount: 2
Fore
SplineSet
358 3 m 2
 358 512.907226562 279.02734375 938.547851562 125 1270 c 5
 279 1344 l 5
 377 1073 l 6
 406 994 482 954 608 954 c 4
 789.102539062 954 833.487304688 1133.90527344 862 1343 c 5
 1009 1304 l 5
 988.502929688 1017.03808594 877.96484375 772.990234375 613.014648438 772.990234375 c 4
 557.178710938 772.990234375 504.1796875 781.614257812 451 799 c 5
 497 544 521 311 521 0 c 1
 358 0 l 1
 358 3 l 2
EndSplineSet
EndChar

StartChar: uni0663
Encoding: 1635 1635 62
GlifName: afii57395
Width: 1335
VWidth: 2170
GlyphClass: 2
Flags: HW
LayerCount: 2
Fore
SplineSet
963 780 m 4
 871 780 802 814 756 881 c 5
 714 813 649 778 561 777 c 4
 525 777 489 785 451 799 c 5
 496 561 520 327 521 0 c 1
 358 0 l 1
 358 3 l 2
 358 516 280 937 125 1270 c 5
 279 1344 l 5
 379 1066 l 6
 407 988 464 949 549 949 c 4
 683 949 686 1152 686 1295 c 5
 815 1294 l 5
 822 1171 825 1090 832 1050 c 4
 840 1003 873 949 951 950 c 4
 1044 951 1067 1038 1067 1212 c 4
 1067 1249 1065 1290 1062 1335 c 5
 1214 1333 l 5
 1217 1290 1218 1251 1218 1213 c 4
 1218 924 1134 780 963 780 c 4
EndSplineSet
EndChar

StartChar: uni0664
Encoding: 1636 1636 63
GlifName: afii57396
Width: 990
VWidth: 2442
GlyphClass: 2
Flags: HW
LayerCount: 2
Fore
SplineSet
726 700 m 5
 423 566 272 461 272 343 c 0
 272 221 390 180 578 180 c 2
 891 180 l 1
 894 0 l 1
 538 0 l 2
 244 0 96 108 96 324 c 0
 96 470 209 580 434 732 c 5
 261 773 174 866 174 1011 c 4
 174 1228 346 1328 690 1353 c 5
 690 1164 l 5
 473 1152 365 1102 365 1012 c 4
 365 888 485 843 724 837 c 5
 726 700 l 5
EndSplineSet
EndChar

StartChar: uni0665
Encoding: 1637 1637 64
GlifName: afii57397
Width: 1174
VWidth: 2311
GlyphClass: 2
Flags: HW
LayerCount: 2
Fore
SplineSet
602.552734375 181 m 0
 797.5625 181 894.583984375 224.090820312 894.583984375 409.301757812 c 0
 894.583984375 623.208984375 783.884765625 827.754882812 566.552734375 1031 c 5
 372.552734375 828 277.552734375 619 277.552734375 434 c 0
 277.552734375 232 385.552734375 181 602.552734375 181 c 0
601.552734375 1 m 0
 265.046875 1 94.447265625 107.846679688 94.447265625 422.244140625 c 0
 94.447265625 666.82421875 203.53515625 904.0703125 424.552734375 1130 c 5
 361.552734375 1188 l 5
 487.552734375 1352 l 5
 881.552734375 1051 1079.55273438 737 1079.55273438 411 c 0
 1079.55273438 105 920.552734375 2 601.552734375 1 c 0
EndSplineSet
EndChar

StartChar: uni0666
Encoding: 1638 1638 65
GlifName: afii57398
Width: 1175
VWidth: 2311
GlyphClass: 2
Flags: HW
LayerCount: 2
Fore
SplineSet
927 1344 m 5
 929.002929688 911.439453125 999.37890625 307.338867188 1078 0 c 1
 889 0 l 1
 844.48046875 171.893554688 761.018554688 884.543945312 756 1148 c 5
 671 1123 571 1111 454 1111 c 4
 337 1111 217 1129 95 1164 c 5
 95 1348 l 5
 224 1314 358 1297 496.75 1297 c 4
 635.5 1297 779 1314 927 1348 c 5
 927 1344 l 5
EndSplineSet
EndChar

StartChar: uni0667
Encoding: 1639 1639 66
GlifName: afii57399
Width: 1260
VWidth: 2311
GlyphClass: 2
Flags: HW
LayerCount: 2
Fore
SplineSet
551 0 m 1
 492 408 356 794 105 1257 c 5
 261 1344 l 5
 429 999 560 691 635 338 c 1
 711 683 840 992 999 1344 c 5
 1154 1257 l 5
 918 789 783 403 710 0 c 1
 551 0 l 1
EndSplineSet
EndChar

StartChar: uni0668
Encoding: 1640 1640 67
GlifName: afii57400
Width: 1260
VWidth: 2311
GlyphClass: 2
Flags: HW
LayerCount: 2
Fore
SplineSet
551 1324 m 5
 710 1324 l 5
 783 921 918 535 1154 67 c 1
 999 -20 l 1
 840 332 711 641 635 986 c 5
 560 633 429 325 261 -20 c 1
 105 67 l 1
 356 530 492 916 551 1324 c 5
EndSplineSet
EndChar

StartChar: uni0669
Encoding: 1641 1641 68
GlifName: afii57401
Width: 1129
VWidth: 2311
GlyphClass: 2
Flags: HW
LayerCount: 2
Fore
SplineSet
114 951 m 4
 114 1121.6875 253.079101562 1347.02050781 474.052734375 1347.02050781 c 4
 715.801757812 1347.02050781 821.1171875 1204.00683594 838 917 c 4
 859.341796875 569.135742188 879.055664062 304.134765625 956 17 c 1
 800 -32 l 1
 757 98 724 290 699 619 c 5
 660.977539062 616.528320312 624.581054688 615.286132812 589.811523438 615.286132812 c 4
 293.517578125 615.286132812 114 684.239257812 114 951 c 4
470.965820312 1177.0078125 m 4
 349.064453125 1177.0078125 282 1049.19042969 282 957 c 4
 282 814.822265625 376.510742188 785.73046875 548.484375 785.73046875 c 4
 588.556640625 785.73046875 632.76171875 788.17578125 681 793 c 5
 667.072265625 1025.12695312 645.984375 1177.0078125 470.965820312 1177.0078125 c 4
EndSplineSet
EndChar

StartChar: uni066A
Encoding: 1642 1642 69
GlifName: afii57381
Width: 1033
VWidth: 4036
GlyphClass: 2
Flags: HW
LayerCount: 2
Fore
SplineSet
741.888671875 1331.76074219 m 1
 874 1272 l 1
 292.056640625 -14.501953125 l 1
 159.944335938 45.2587890625 l 1
 741.888671875 1331.76074219 l 1
637 173 m 0
 637 246 697 307 770 307 c 0
 843 307 903 246 903 173 c 0
 903 100 843 40 770 40 c 0
 696 40 637 97 637 173 c 0
130 1139 m 0
 130 1212 190 1273 263 1273 c 0
 336 1273 396 1212 396 1139 c 0
 396 1066 336 1006 263 1006 c 0
 189 1006 130 1063 130 1139 c 0
EndSplineSet
EndChar

StartChar: uni066B
Encoding: 1643 1643 70
GlifName: uni066B_
Width: 772
VWidth: 2950
GlyphClass: 2
Flags: HW
LayerCount: 2
Fore
SplineSet
534 713 m 5
 652 659 l 5
 187 -407 l 5
 69 -352 l 5
 534 713 l 5
EndSplineSet
PairPos2: "'kern' Horizontal Kerning lookup 15-4" uni06F2 dx=-130 dy=0 dh=-130 dv=0 dx=0 dy=0 dh=0 dv=0
PairPos2: "'kern' Horizontal Kerning lookup 15-4" uni06F3 dx=-130 dy=0 dh=-130 dv=0 dx=0 dy=0 dh=0 dv=0
PairPos2: "'kern' Horizontal Kerning lookup 15-4" uni06F4 dx=-110 dy=0 dh=-110 dv=0 dx=0 dy=0 dh=0 dv=0
EndChar

StartChar: uni066C
Encoding: 1644 1644 71
GlifName: uni066C_
Width: 567
VWidth: 2442
GlyphClass: 2
Flags: HW
LayerCount: 2
Fore
SplineSet
259 238 m 0
 359 238 377 209 377 108 c 0
 377 -40.8159053076 256 -207 163 -287 c 5
 90 -228 l 5
 144 -160 182 -109 209 -36 c 1
 149 34 137 61 137 115 c 0
 137 208 172 238 259 238 c 0
EndSplineSet
EndChar

StartChar: uni066D
Encoding: 1645 1645 72
GlifName: afii63167
Width: 1436
VWidth: 2948
GlyphClass: 2
Flags: HW
LayerCount: 2
Fore
SplineSet
151 1039 m 5
 583 1039 l 5
 718 1450 l 5
 853 1039 l 5
 1285 1039 l 5
 936 783 l 5
 1070 373 l 5
 718 627 l 5
 366 373 l 5
 500 783 l 5
 151 1039 l 5
EndSplineSet
EndChar

StartChar: uni066E
Encoding: 1646 1646 73
GlifName: uni066E_
Width: 1832
VWidth: 2311
GlyphClass: 2
Flags: HW
AnchorPoint: "Anchor-7" 885.06 -201.16 basechar 0
AnchorPoint: "Anchor-10" 932.894 991.77 basechar 0
LayerCount: 2
Fore
SplineSet
921 180 m 4
 1209.47363281 180 1573 225.24609375 1573 336 c 0
 1573 465 1557 594 1528 722 c 1
 1683 768 l 1
 1716 633 1735 509 1735 412 c 0
 1735 336 1722 273 1699 222 c 0
 1630 74 1346 0 907 0 c 4
 431.672209563 0 97.3442068964 96.9698360712 97.3442068964 526.849612692 c 4
 97.3442068964 598.257453884 108.40514759 673.307582987 131 752 c 5
 273 714 l 5
 260.75 631.75 254.625 568.640625 254.625 524.671875 c 4
 254.625 216.484872147 552.630859375 180 921 180 c 4
EndSplineSet
Substitution2: "'fina' Terminal Forms in Arabic lookup 9 subtable" uni066E.fina
EndChar

StartChar: uni066F
Encoding: 1647 1647 74
GlifName: uni066F_
Width: 1412
VWidth: 2311
GlyphClass: 2
Flags: HW
AnchorPoint: "Anchor-10" 127.36 1081.41 basechar 0
AnchorPoint: "Anchor-7" 258.8 -666 basechar 0
LayerCount: 2
Fore
SplineSet
1314.00683594 172.309570312 m 0
 1314.00683594 -273.734375 1136.99121094 -468 721 -468 c 0
 311 -468 98 -291 98 68 c 0
 98 206 128 345 190 484 c 1
 339 429 l 1
 286 299 259 184 259 85 c 0
 259 -168 392 -295 725 -295 c 0
 1050 -295 1153 -131 1157 90 c 1
 1157 90 1073 41 947 41 c 0
 781 41 642 133 642 304 c 0
 642 531 773 733 968 733 c 0
 1143.60449219 733 1247.53320312 585.401367188 1290.61914062 414 c 0
 1306.38769531 351.268554688 1314.00683594 235.348632812 1314.00683594 172.309570312 c 0
791 318 m 0
 791 245 850 211 959 211 c 0
 1078 211 1154 268 1154 268 c 1
 1154 419 1091 561 969 561 c 0
 873 561 791 458 791 318 c 0
EndSplineSet
Substitution2: "'fina' Terminal Forms in Arabic lookup 9 subtable" uni066F.fina
EndChar

StartChar: uni0670
Encoding: 1648 1648 75
GlifName: uni0670
Width: 6
VWidth: 2317
GlyphClass: 4
Flags: HW
AnchorPoint: "Anchor-10" 593.891 1359.45 mark 0
AnchorPoint: "Anchor-9" 593.891 1359.45 mark 0
AnchorPoint: "Anchor-1" 583.891 1876.62 basemark 0
AnchorPoint: "Anchor-1" 593.891 1359.45 mark 0
LayerCount: 2
Fore
SplineSet
557.712890625 1407.47851562 m 1
 532.012695312 1769.93164062 l 1
 635.671875 1830.97460938 l 1
 635.671875 1407.47851562 l 1
 557.712890625 1407.47851562 l 1
EndSplineSet
EndChar

StartChar: uni0674
Encoding: 1652 1652 76
GlifName: uni0674
Width: 683
VWidth: 2317
GlyphClass: 2
Flags: HW
LayerCount: 2
Fore
SplineSet
226.403882032 1648.69708848 m 1
 177.106415856 1685.67018811 149 1730.44468558 149 1794 c 0
 149 1914.25177444 233.468932159 1999 364 1999 c 0
 413.258381195 1999 461.424848907 1985.10936579 503 1960.18598107 c 1
 503 1844.82214691 l 1
 465.122036297 1862.35238264 422.238920729 1882 372 1882 c 0
 316.143843727 1882 259 1858.12893443 259 1794 c 0
 259 1747.96949391 292.211518483 1714.51099472 357 1696 c 4
 364 1694 370.504984065 1694 379 1694 c 0
 407.19921775 1694 464.777088479 1708.38945731 526 1718.15682353 c 1
 526 1598.00180214 l 1
 398.612010489 1569.45366106 271.422985724 1544.26836938 147 1513.39848536 c 1
 147 1630.08609104 l 1
 173.267910357 1636.51375222 200.288094256 1642.16814153 226.403882032 1648.69708848 c 1
EndSplineSet
EndChar

StartChar: uni06A1
Encoding: 1697 1697 80
GlifName: uni06A_1
Width: 1825
VWidth: 2311
GlyphClass: 2
Flags: HW
AnchorPoint: "Anchor-10" 534.823 1301.98 basechar 0
AnchorPoint: "Anchor-7" 648.243 -158.873 basechar 0
LayerCount: 2
Fore
SplineSet
907 0 m 0
 432 0 97 97 97 527 c 0
 97 598 108 673 131 752 c 1
 273 714 l 1
 261 632 255 569 255 525 c 0
 255 217 553 180 921 180 c 0
 1210 180 l 2
 1314 180 1439 196 1477 226 c 0
 1532 269 1561 329 1564 408 c 1
 1564 408 1486 359 1360 359 c 0
 1194 359 1055 451 1055 622 c 0
 1055 849 1185 1051 1380 1051 c 0
 1621 1051 1727 784 1727 537 c 0
 1727 297 1667 140 1548 64 c 0
 1481 21 1366 0 1204 0 c 2
 907 0 l 0
1204 636 m 0
 1204 563 1262 529 1371 529 c 0
 1490 529 1567 586 1567 586 c 1
 1567 737 1504 879 1382 879 c 0
 1286 879 1204 776 1204 636 c 0
EndSplineSet
Substitution2: "'init' Initial Forms in Arabic lookup 13 subtable" uni06A1.init
Substitution2: "'medi' Medial Forms in Arabic lookup 11 subtable" uni06A1.medi
Substitution2: "'fina' Terminal Forms in Arabic lookup 9 subtable" uni06A1.fina
EndChar

StartChar: uni06A9
Encoding: 1705 1705 81
GlifName: uni06A_9
Width: 1916
VWidth: 2311
GlyphClass: 2
Flags: HW
AnchorPoint: "Anchor-7" 885.06 -201.16 basechar 0
AnchorPoint: "Anchor-10" 1196.9 1361.66 basechar 0
LayerCount: 2
Fore
SplineSet
1255 1005 m 1
 1603 620 l 2
 1672 544 1706 460 1706 369 c 0
 1706 123 1557 0 1259 0 c 2
 907 0 l 2
 432 0 97 97 97 527 c 0
 97 598 108 673 131 752 c 1
 273 714 l 1
 261 632 255 569 255 525 c 0
 255 224 552 180 921 180 c 2
 1293 180 l 2
 1465 180 1552 240 1552 358 c 0
 1552 403 1530 449 1485 500 c 2
 1096 935 l 1
 1096 935 1108 1122 1141 1137 c 14
 1852 1404 l 1
 1852 1229 l 1
 1255 1005 l 1
EndSplineSet
Substitution2: "'init' Initial Forms in Arabic lookup 13 subtable" uniFB90
Substitution2: "'medi' Medial Forms in Arabic lookup 11 subtable" uniFB91
Substitution2: "'fina' Terminal Forms in Arabic lookup 9 subtable" uniFB8F
EndChar

StartChar: uni06BA
Encoding: 1722 1722 83
GlifName: afii57514
Width: 1403
VWidth: 2317
GlyphClass: 2
Flags: HW
AnchorPoint: "Anchor-10" 632.479 978.46 basechar 0
AnchorPoint: "Anchor-7" 575.075 -555.182 basechar 0
LayerCount: 2
Fore
SplineSet
690 -448 m 4
 324.684555129 -448 100 -270.4472771 100 88 c 4
 100 226 130 365 192 504 c 5
 341 449 l 5
 288 319 261 204 261 105 c 4
 261 -149 405 -275 693 -275 c 4
 1000 -275 1154 -142 1154 123 c 4
 1154 217 1118 337 1047 481 c 5
 1202 566 l 5
 1283 406 1315 267 1315 129 c 4
 1315 -255.93766475 1090.04967421 -448 690 -448 c 4
EndSplineSet
Substitution2: "'fina' Terminal Forms in Arabic lookup 9 subtable" uniFB9F
EndChar

StartChar: uni06F4
Encoding: 1780 1780 90
GlifName: uni06F_4
Width: 1122
VWidth: 2311
GlyphClass: 2
Flags: HW
LayerCount: 2
Fore
SplineSet
358 3 m 2
 358 518.905273438 280.172851562 936.083984375 125 1270 c 5
 279 1344 l 5
 392 1010 l 21
 392 1108.41503906 490.826171875 1341 751 1341 c 4
 803 1341 886 1333 948 1302 c 5
 948 1140 l 5
 862 1165 804 1170 772 1170 c 4
 623.29296875 1170 512.202148438 1070.18554688 512.202148438 949.071289062 c 4
 512.202148438 862.919921875 606.3671875 828.947265625 773 828 c 4
 843 828 921 843 1009 875 c 5
 1012 704 l 5
 922 679 838 667 764 667 c 4
 640 667 503 710 453 774 c 5
 494 558 520 327 521 0 c 1
 358 0 l 1
 358 3 l 2
EndSplineSet
PairPos2: "'kern' Horizontal Kerning lookup 15-4" uni06F0 dx=-64 dy=0 dh=-64 dv=0 dx=0 dy=0 dh=0 dv=0
PairPos2: "'kern' Horizontal Kerning lookup 15-4" uni06F5 dx=-40 dy=0 dh=-40 dv=0 dx=0 dy=0 dh=0 dv=0
PairPos2: "'kern' Horizontal Kerning lookup 15-4" uni06F8 dx=-64 dy=0 dh=-64 dv=0 dx=0 dy=0 dh=0 dv=0
PairPos2: "'kern' Horizontal Kerning lookup 15-4" uni06F1 dx=-64 dy=0 dh=-64 dv=0 dx=0 dy=0 dh=0 dv=0
PairPos2: "'kern' Horizontal Kerning lookup 15-4" uni06F9 dx=-64 dy=0 dh=-64 dv=0 dx=0 dy=0 dh=0 dv=0
EndChar

StartChar: uni06F5
Encoding: 1781 1781 91
GlifName: uni06F_5
Width: 1241
VWidth: 2170
GlyphClass: 2
Flags: HW
LayerCount: 2
Fore
SplineSet
414 174 m 0
 492 174 536 242 550 370 c 2
 557 432 l 1
 682 432 l 1
 689 370 l 2
 703 242 747 174 825 174 c 0
 912 174 957 236 957 352 c 0
 957 563 815 790 595 1042 c 1
 399.82421875 781.1015625 281.994140625 556.069335938 281.994140625 354.55078125 c 0
 281.994140625 237.27734375 326.1484375 174 414 174 c 0
1127 331 m 0
 1127 143 1026 0 839 0 c 0
 729 1 656 60 619 159 c 1
 583 59 508 0 404 0 c 0
 213 0 114 135 114 322 c 0
 114 590 246 833 470 1150 c 1
 422 1192 l 1
 529 1341 l 1
 907 979 1127 636 1127 331 c 0
EndSplineSet
PairPos2: "'kern' Horizontal Kerning lookup 15-4" uni06F2 dx=-100 dy=0 dh=-100 dv=0 dx=0 dy=0 dh=0 dv=0
PairPos2: "'kern' Horizontal Kerning lookup 15-4" uni06F3 dx=-100 dy=0 dh=-100 dv=0 dx=0 dy=0 dh=0 dv=0
PairPos2: "'kern' Horizontal Kerning lookup 15-4" uni06F4 dx=-42 dy=0 dh=-42 dv=0 dx=0 dy=0 dh=0 dv=0
PairPos2: "'kern' Horizontal Kerning lookup 15-4" uni06F6 dx=-42 dy=0 dh=-42 dv=0 dx=0 dy=0 dh=0 dv=0
PairPos2: "'kern' Horizontal Kerning lookup 15-4" uni06F7 dx=-100 dy=0 dh=-100 dv=0 dx=0 dy=0 dh=0 dv=0
PairPos2: "'kern' Horizontal Kerning lookup 15-4" uni06F8 dx=-38 dy=0 dh=-38 dv=0 dx=0 dy=0 dh=0 dv=0
EndChar

StartChar: uni06F6
Encoding: 1782 1782 92
GlifName: uni06F_6
Width: 1063
VWidth: 2311
GlyphClass: 2
Flags: HW
LayerCount: 2
Fore
SplineSet
177.38671875 953.413085938 m 4
 177.38671875 1166.89355469 330.79296875 1340 593 1340 c 4
 645 1340 705 1329 771 1308 c 5
 771 1139 l 5
 704.694335938 1158.84667969 645.713867188 1168.72363281 594.057617188 1168.72363281 c 4
 455.448242188 1168.72363281 344 1086.2265625 344 968 c 4
 344 902 374 850 424 813 c 4
 486.05859375 767.8046875 542 747 600.139648438 739.361328125 c 4
 625.765625 735.994140625 638.463867188 738.40234375 662 750 c 4
 800 818 860 847 943 881 c 5
 953 701 l 5
 679 595 445 358 243 -41 c 5
 100 23 l 1
 201 250 332 434 494 606 c 5
 283.6328125 651.822265625 177.38671875 792.342773438 177.38671875 953.413085938 c 4
EndSplineSet
PairPos2: "'kern' Horizontal Kerning lookup 15-4" uni06F7 dx=-40 dy=0 dh=-40 dv=0 dx=0 dy=0 dh=0 dv=0
PairPos2: "'kern' Horizontal Kerning lookup 15-4" uni06F8 dx=-40 dy=0 dh=-40 dv=0 dx=0 dy=0 dh=0 dv=0
PairPos2: "'kern' Horizontal Kerning lookup 15-4" uni06F9 dx=-30 dy=0 dh=-30 dv=0 dx=0 dy=0 dh=0 dv=0
EndChar

StartChar: uniFB8F
Encoding: 64399 64399 107
GlifName: uniF_B_8F_
Width: 2128
VWidth: 2311
GlyphClass: 2
Flags: HW
AnchorPoint: "Anchor-10" 1196.9 1361.66 basechar 0
AnchorPoint: "Anchor-7" 885.06 -201.16 basechar 0
LayerCount: 2
Fore
SplineSet
1255 1005 m 1
 1905 284 l 2
 1966 216 2028 180 2090 180 c 2
 2135 180 l 2
 2147 180 2153 156 2153 108 c 2
 2153 74 l 2
 2153 25 2147 0 2135 0 c 2
 2086 0 l 2
 1965 1 1835 92 1698 272 c 1
 1659 91 1513 0 1259 0 c 2
 907 0 l 2
 432 0 97 97 97 527 c 0
 97 598 108 673 131 752 c 1
 273 714 l 1
 261 632 255 569 255 525 c 0
 255 224 552 180 921 180 c 2
 1293 180 l 2
 1465 180 1552 240 1552 358 c 0
 1552 403 1530 450 1485 500 c 2
 1096 935 l 1
 1096 935 1108 1122 1141 1137 c 14
 1852 1404 l 1
 1852 1229 l 1
 1255 1005 l 1
EndSplineSet
EndChar

StartChar: uniFB9F
Encoding: 64415 64415 115
GlifName: uniF_B_9F_
Width: 1487
VWidth: 2311
GlyphClass: 2
Flags: HW
AnchorPoint: "Anchor-10" 393.357 757.317 basechar 0
AnchorPoint: "Anchor-7" 293.314 -739.99 basechar 0
LayerCount: 2
Fore
SplineSet
690 -518 m 4
 324.684555129 -518 100 -340.4472771 100 18 c 4
 100 156 130 295 192 434 c 5
 341 379 l 5
 288 249 261 134 261 35 c 4
 261 -219 405 -345 693 -345 c 4
 1000 -345 1154 -212 1154 53 c 0
 1154 147 1118 267 1047 411 c 1
 1198 495 l 1
 1279 282 l 2
 1306 215 1360 182 1441 181 c 2
 1494 180 l 2
 1506 180 1512 156 1512 108 c 2
 1512 74 l 2
 1512 25 1506 0 1494 0 c 2
 1442 1 l 2
 1372 2 1325 18 1301 51 c 1
 1299 -327 1095 -517 690 -518 c 4
EndSplineSet
EndChar

StartChar: uniFBE8
Encoding: 64488 64488 118
GlifName: uniF_B_E_8
Width: 668
VWidth: 2317
GlyphClass: 2
Flags: HW
AnchorPoint: "Anchor-10" 323.546 1080.67 basechar 0
AnchorPoint: "Anchor-7" 327.466 -116.07 basechar 0
LayerCount: 2
Fore
SplineSet
115 0 m 2
 -2 0 l 2
 -35 0 -42 25 -42 74 c 2
 -42 108 l 2
 -42 156 -36 180 -4 180 c 2
 119 180 l 2
 349 180 409 186 409 364 c 0
 409 490 364 696 364 696 c 5
 519 742 l 5
 519 742 570 583 570 415 c 0
 570 107 457 0 115 0 c 2
EndSplineSet
EndChar

StartChar: uniFBE9
Encoding: 64489 64489 119
GlifName: uniF_B_E_9
Width: 764
VWidth: 2311
GlyphClass: 2
Flags: HW
AnchorPoint: "Anchor-10" 297.926 1025.55 basechar 0
AnchorPoint: "Anchor-7" 265.065 -264.47 basechar 0
LayerCount: 2
Fore
SplineSet
770 0 m 2
 737 0 l 2
 633 0 571 43 491 130 c 1
 413 43 312 0 189 0 c 2
 -6 0 l 2
 -36 0 -42 25 -42 74 c 2
 -42 108 l 2
 -42 156 -37 180 -6 180 c 2
 193 180 l 2
 335 180 407 243 410 367 c 2
 415 582 l 5
 569 608 l 5
 578 367 l 2
 582 243 646 180 740 180 c 2
 770 180 l 2
 782 180 788 156 788 108 c 2
 788 74 l 2
 788 25 782 0 770 0 c 2
EndSplineSet
EndChar

StartChar: uniFE73
Encoding: 65139 65139 127
GlifName: uniF_E_73
Width: 672
VWidth: 2950
GlyphClass: 2
Flags: HW
AnchorPoint: "Anchor-10" 342.943 1010.47 basechar 0
AnchorPoint: "Anchor-7" 416.943 -208.304 basechar 0
LayerCount: 2
Fore
SplineSet
298.336914062 424.018554688 m 2
 298.336914062 261.543945312 405.709960938 180.342773438 618.00390625 180.342773438 c 2
 684.674804688 180.342773438 l 1
 686.674804688 180.342773438 l 1
 686.674804688 178.342773438 l 1
 686.674804688 3.5537109375 l 1
 686.674804688 1.5537109375 l 1
 684.674804688 1.5537109375 l 1
 608.008789062 1.5537109375 l 2
 276.401367188 1.8505859375 111.544921875 143.372070312 111.544921875 426.563476562 c 2
 111.544921875 446.69140625 l 1
 111.544921875 448.69140625 l 1
 113.544921875 448.69140625 l 1
 296.336914062 448.69140625 l 1
 298.336914062 448.69140625 l 1
 298.336914062 446.69140625 l 1
 298.336914062 424.018554688 l 2
EndSplineSet
EndChar

StartChar: uniFE8E
Encoding: 65166 65166 153
GlifName: uniF_E_8E_
Width: 527
VWidth: 2311
GlyphClass: 2
Flags: HW
AnchorPoint: "Anchor-10" 224.19 1473.38 basechar 0
AnchorPoint: "Anchor-7" 264.947 -215.71 basechar 0
LayerCount: 2
Fore
SplineSet
534 180 m 2
 546 180 552 156 552 108 c 2
 552 74 l 2
 552 25 546 0 534 0 c 2
 514 0 l 2
 249.911132812 0 175.186518955 152.658355536 167 431 c 2
 138 1330 l 5
 311 1386 l 5
 311 445 l 2
 311 269 371 180 513 180 c 2
 534 180 l 2
EndSplineSet
EndChar

StartChar: uniFEA2
Encoding: 65186 65186 173
GlifName: uniF_E_A_2
Width: 1333
VWidth: 2311
GlyphClass: 2
Flags: HW
AnchorPoint: "Anchor-10" 562.59 1127.96 basechar 0
AnchorPoint: "Anchor-7" 674.525 -813.648 basechar 0
LayerCount: 2
Fore
SplineSet
96 -142 m 4
 96 245 454 474 863 559 c 1
 802 583 783 590 699 623 c 0
 550.186349998 681.462505358 490.190429688 707 428 707 c 0
 354 707 276 653 195 546 c 1
 80 635 l 1
 184.56640625 781.705078125 288.465820312 883 435 883 c 0
 546.513671875 883 658.072265625 825.1171875 786 766.125976562 c 0
 908.497070312 709.638671875 1056.88476562 629.919921875 1133.98242188 629.919921875 c 0
 1145.87988281 629.919921875 1157.87109375 630.280273438 1170 631 c 1
 1145 450 l 1
 1095 445 1055 439 1004 431 c 1
 1007 255 1094 180 1292 180 c 2
 1340 180 l 2
 1352 180 1358 157 1358 108 c 2
 1358 74 l 2
 1358 25 1352 0 1340 0 c 2
 1297 0 l 2
 1026 0 877 121 867 406 c 1
 548 312 265 151 265 -139 c 4
 265 -341.092773438 483.7890625 -459 777 -459 c 4
 909 -459 1033 -443 1151 -409 c 5
 1195 -564 l 5
 1056 -607 918 -628 779 -628 c 4
 403.409179688 -628 96 -455.12109375 96 -142 c 4
EndSplineSet
EndChar

StartChar: uniFEA3
Encoding: 65187 65187 174
GlifName: uniF_E_A_3
Width: 1371
VWidth: 2311
GlyphClass: 2
Flags: HW
AnchorPoint: "Anchor-10" 581.06 1107.73 basechar 0
AnchorPoint: "Anchor-7" 629.96 -217.83 basechar 0
LayerCount: 2
Fore
SplineSet
1275 525 m 5
 1251 378 l 5
 1188 371 1034 277 658 95 c 4
 527 32 334 0 79 0 c 6
 -4 0 l 2
 -36 0 -52 25 -52 74 c 2
 -52 108 l 2
 -52 156 -36 180 -4 180 c 2
 70 180 l 6
 281 180 435 198 532 233 c 4
 667 282 814 345 976 423 c 5
 876 457 834 475 714 522 c 4
 565.125976562 580.30859375 505.190429688 606 443 606 c 4
 369 606 291 552 210 445 c 5
 95 534 l 5
 199.56640625 680.705078125 303.465820312 782 450 782 c 4
 561.513671875 782 668.411132812 723.373046875 798 668.125976562 c 4
 930.497070312 611.638671875 1091.88476562 523.919921875 1238.98242188 523.919921875 c 4
 1250.87988281 523.919921875 1262.87109375 524.280273438 1275 525 c 5
EndSplineSet
EndChar

StartChar: uniFEA4
Encoding: 65188 65188 175
GlifName: uniF_E_A_4
Width: 1423
VWidth: 2311
GlyphClass: 2
Flags: HW
AnchorPoint: "Anchor-10" 581.06 1107.73 basechar 0
AnchorPoint: "Anchor-7" 629.96 -217.83 basechar 0
LayerCount: 2
Fore
SplineSet
1238.98242188 523.919921875 m 4
 1250.87988281 523.919921875 1262.87109375 524.280273438 1275 525 c 5
 1251 378 l 5
 1192 364 1112 332 1031 280 c 5
 1041 216 1128 182 1311 181 c 2
 1430 180 l 2
 1442 180 1448 156 1448 108 c 2
 1448 74 l 2
 1448 25 1442 0 1430 0 c 2
 1288 0 l 2
 1058 0 931 71 886 212 c 5
 812 171 735 132 658 95 c 4
 527 32 334 0 79 0 c 6
 -4 0 l 2
 -36 0 -52 25 -52 74 c 2
 -52 108 l 2
 -52 156 -36 180 -4 180 c 2
 70 180 l 6
 285 180 439 198 532 233 c 4
 675 286 823 349 976 423 c 5
 876 457 834 475 714 522 c 4
 565.125976562 580.30859375 505.190429688 606 443 606 c 4
 369 606 291 552 210 445 c 5
 95 534 l 5
 199.56640625 680.705078125 303.465820312 782 450 782 c 4
 561.513671875 782 668.411132812 723.373046875 798 668.125976562 c 4
 930.497070312 611.638671875 1091.88476562 523.919921875 1238.98242188 523.919921875 c 4
EndSplineSet
EndChar

StartChar: uniFEAA
Encoding: 65194 65194 181
GlifName: uniF_E_A_A_
Width: 1152
VWidth: 2311
GlyphClass: 2
Flags: HW
AnchorPoint: "Anchor-10" 564.149 1189.65 basechar 0
AnchorPoint: "Anchor-7" 475.41 -246.98 basechar 0
LayerCount: 2
Fore
SplineSet
1159 180 m 2
 1171 180 1177 156 1177 108 c 2
 1177 74 l 2
 1177 25 1171 0 1159 0 c 2
 1128 0 l 2
 1021 0 932 46 863 137 c 1
 781 31 636 -22 406 -22 c 0
 308 -22 204 -4 96 34 c 1
 96 222 l 1
 190 181 290 161 397 161 c 0
 550.561118111 161 734 209.475971199 734 298 c 0
 734 316 729 336 718 358 c 2
 474 864 l 1
 619 960 l 1
 880 400 l 2
 946 257 1030 184 1131 181 c 2
 1159 180 l 2
EndSplineSet
EndChar

StartChar: uniFEAE
Encoding: 65198 65198 185
GlifName: uniF_E_A_E_
Width: 896
VWidth: 2317
GlyphClass: 2
Flags: HW
AnchorPoint: "Anchor-10" 533.618 857.71 basechar 0
AnchorPoint: "Anchor-7" 256.38 -638.85 basechar 0
LayerCount: 2
Fore
SplineSet
470 455 m 1
 620 532 l 1
 644 442 666 352 688 262 c 0
 701 207 760 180 863 180 c 2
 903 180 l 2
 915 180 921 156 921 108 c 2
 921 74 l 2
 921 25 915 0 903 0 c 2
 868 0 l 2
 777 0 718 13 693 40 c 1
 642 -328 375 -513 21 -514 c 1
 -34 -378 l 1
 307.491210938 -353.373046875 536 -195.135742188 536 116 c 0
 536 177 514 290 470 455 c 1
EndSplineSet
PairPos2: "'kern' Horizontal Kerning lookup 15-2" uniFB7C dx=-110 dy=0 dh=-110 dv=0 dx=0 dy=0 dh=0 dv=0
PairPos2: "'kern' Horizontal Kerning lookup 15-1" uniFEE7 dx=-178 dy=0 dh=-178 dv=0 dx=0 dy=0 dh=0 dv=0
PairPos2: "'kern' Horizontal Kerning lookup 15-2" uniFE8B dx=-178 dy=0 dh=-178 dv=0 dx=0 dy=0 dh=0 dv=0
PairPos2: "'kern' Horizontal Kerning lookup 15-2" uni0640 dx=-178 dy=0 dh=-178 dv=0 dx=0 dy=0 dh=0 dv=0
PairPos2: "'kern' Horizontal Kerning lookup 15-2" uni067E dx=-178 dy=0 dh=-178 dv=0 dx=0 dy=0 dh=0 dv=0
PairPos2: "'kern' Horizontal Kerning lookup 15-2" uni06AF dx=-226 dy=0 dh=-226 dv=0 dx=0 dy=0 dh=0 dv=0
PairPos2: "'kern' Horizontal Kerning lookup 15-2" uniFB92 dx=-226 dy=0 dh=-226 dv=0 dx=0 dy=0 dh=0 dv=0
PairPos2: "'kern' Horizontal Kerning lookup 15-2" uniFB94 dx=-226 dy=0 dh=-226 dv=0 dx=0 dy=0 dh=0 dv=0
PairPos2: "'kern' Horizontal Kerning lookup 15-2" uni0621 dx=-178 dy=0 dh=-178 dv=0 dx=0 dy=0 dh=0 dv=0
PairPos2: "'kern' Horizontal Kerning lookup 15-2" uni0622 dx=-143 dy=0 dh=-143 dv=0 dx=0 dy=0 dh=0 dv=0
PairPos2: "'kern' Horizontal Kerning lookup 15-2" uni0623 dx=-143 dy=0 dh=-143 dv=0 dx=0 dy=0 dh=0 dv=0
PairPos2: "'kern' Horizontal Kerning lookup 15-2" uni0627 dx=-143 dy=0 dh=-143 dv=0 dx=0 dy=0 dh=0 dv=0
PairPos2: "'kern' Horizontal Kerning lookup 15-2" uni0628 dx=-178 dy=0 dh=-178 dv=0 dx=0 dy=0 dh=0 dv=0
PairPos2: "'kern' Horizontal Kerning lookup 15-2" uni0629 dx=-178 dy=0 dh=-178 dv=0 dx=0 dy=0 dh=0 dv=0
PairPos2: "'kern' Horizontal Kerning lookup 15-2" uni062A dx=-178 dy=0 dh=-178 dv=0 dx=0 dy=0 dh=0 dv=0
PairPos2: "'kern' Horizontal Kerning lookup 15-2" uniFE97 dx=-178 dy=0 dh=-178 dv=0 dx=0 dy=0 dh=0 dv=0
PairPos2: "'kern' Horizontal Kerning lookup 15-2" uni062B dx=-178 dy=0 dh=-178 dv=0 dx=0 dy=0 dh=0 dv=0
PairPos2: "'kern' Horizontal Kerning lookup 15-2" uniFE9B dx=-178 dy=0 dh=-178 dv=0 dx=0 dy=0 dh=0 dv=0
PairPos2: "'kern' Horizontal Kerning lookup 15-2" uniFE9F dx=-178 dy=0 dh=-178 dv=0 dx=0 dy=0 dh=0 dv=0
PairPos2: "'kern' Horizontal Kerning lookup 15-2" uniFEA3 dx=-178 dy=0 dh=-178 dv=0 dx=0 dy=0 dh=0 dv=0
PairPos2: "'kern' Horizontal Kerning lookup 15-2" uniFEA7 dx=-178 dy=0 dh=-178 dv=0 dx=0 dy=0 dh=0 dv=0
PairPos2: "'kern' Horizontal Kerning lookup 15-2" uni062F dx=-178 dy=0 dh=-178 dv=0 dx=0 dy=0 dh=0 dv=0
PairPos2: "'kern' Horizontal Kerning lookup 15-2" uni0630 dx=-178 dy=0 dh=-178 dv=0 dx=0 dy=0 dh=0 dv=0
PairPos2: "'kern' Horizontal Kerning lookup 15-2" uni0633 dx=-178 dy=0 dh=-178 dv=0 dx=0 dy=0 dh=0 dv=0
PairPos2: "'kern' Horizontal Kerning lookup 15-2" uniFEB3 dx=-178 dy=0 dh=-178 dv=0 dx=0 dy=0 dh=0 dv=0
PairPos2: "'kern' Horizontal Kerning lookup 15-2" uni0634 dx=-178 dy=0 dh=-178 dv=0 dx=0 dy=0 dh=0 dv=0
PairPos2: "'kern' Horizontal Kerning lookup 15-2" uniFEB7 dx=-178 dy=0 dh=-178 dv=0 dx=0 dy=0 dh=0 dv=0
PairPos2: "'kern' Horizontal Kerning lookup 15-2" uni0635 dx=-178 dy=0 dh=-178 dv=0 dx=0 dy=0 dh=0 dv=0
PairPos2: "'kern' Horizontal Kerning lookup 15-2" uniFEBB dx=-178 dy=0 dh=-178 dv=0 dx=0 dy=0 dh=0 dv=0
PairPos2: "'kern' Horizontal Kerning lookup 15-2" uni0636 dx=-178 dy=0 dh=-178 dv=0 dx=0 dy=0 dh=0 dv=0
PairPos2: "'kern' Horizontal Kerning lookup 15-2" uniFEBF dx=-178 dy=0 dh=-178 dv=0 dx=0 dy=0 dh=0 dv=0
PairPos2: "'kern' Horizontal Kerning lookup 15-2" uni0637 dx=-178 dy=0 dh=-178 dv=0 dx=0 dy=0 dh=0 dv=0
PairPos2: "'kern' Horizontal Kerning lookup 15-2" uniFEC3 dx=-178 dy=0 dh=-178 dv=0 dx=0 dy=0 dh=0 dv=0
PairPos2: "'kern' Horizontal Kerning lookup 15-2" uni0638 dx=-178 dy=0 dh=-178 dv=0 dx=0 dy=0 dh=0 dv=0
PairPos2: "'kern' Horizontal Kerning lookup 15-2" uniFEC7 dx=-178 dy=0 dh=-178 dv=0 dx=0 dy=0 dh=0 dv=0
PairPos2: "'kern' Horizontal Kerning lookup 15-2" uniFECB dx=-178 dy=0 dh=-178 dv=0 dx=0 dy=0 dh=0 dv=0
PairPos2: "'kern' Horizontal Kerning lookup 15-2" uniFECF dx=-178 dy=0 dh=-178 dv=0 dx=0 dy=0 dh=0 dv=0
PairPos2: "'kern' Horizontal Kerning lookup 15-2" uni0641 dx=-178 dy=0 dh=-178 dv=0 dx=0 dy=0 dh=0 dv=0
PairPos2: "'kern' Horizontal Kerning lookup 15-2" uniFED3 dx=-178 dy=0 dh=-178 dv=0 dx=0 dy=0 dh=0 dv=0
PairPos2: "'kern' Horizontal Kerning lookup 15-2" uni0642 dx=-60 dy=0 dh=-60 dv=0 dx=0 dy=0 dh=0 dv=0
PairPos2: "'kern' Horizontal Kerning lookup 15-2" uniFED7 dx=-178 dy=0 dh=-178 dv=0 dx=0 dy=0 dh=0 dv=0
PairPos2: "'kern' Horizontal Kerning lookup 15-2" uni0643 dx=-143 dy=0 dh=-143 dv=0 dx=0 dy=0 dh=0 dv=0
PairPos2: "'kern' Horizontal Kerning lookup 15-2" uniFEDB dx=-226 dy=0 dh=-226 dv=0 dx=0 dy=0 dh=0 dv=0
PairPos2: "'kern' Horizontal Kerning lookup 15-2" uni0644 dx=-60 dy=0 dh=-60 dv=0 dx=0 dy=0 dh=0 dv=0
PairPos2: "'kern' Horizontal Kerning lookup 15-2" uniFEDF dx=-143 dy=0 dh=-143 dv=0 dx=0 dy=0 dh=0 dv=0
PairPos2: "'kern' Horizontal Kerning lookup 15-2" uniFEFB dx=-143 dy=0 dh=-143 dv=0 dx=0 dy=0 dh=0 dv=0
PairPos2: "'kern' Horizontal Kerning lookup 15-2" uni0645 dx=-178 dy=0 dh=-178 dv=0 dx=0 dy=0 dh=0 dv=0
PairPos2: "'kern' Horizontal Kerning lookup 15-2" uniFEE3 dx=-178 dy=0 dh=-178 dv=0 dx=0 dy=0 dh=0 dv=0
PairPos2: "'kern' Horizontal Kerning lookup 15-2" uni0646 dx=-60 dy=0 dh=-60 dv=0 dx=0 dy=0 dh=0 dv=0
PairPos2: "'kern' Horizontal Kerning lookup 15-2" uni0647 dx=-178 dy=0 dh=-178 dv=0 dx=0 dy=0 dh=0 dv=0
PairPos2: "'kern' Horizontal Kerning lookup 15-2" uniFEEB dx=-178 dy=0 dh=-178 dv=0 dx=0 dy=0 dh=0 dv=0
PairPos2: "'kern' Horizontal Kerning lookup 15-2" uni0649 dx=-60 dy=0 dh=-60 dv=0 dx=0 dy=0 dh=0 dv=0
PairPos2: "'kern' Horizontal Kerning lookup 15-2" uni0626 dx=-60 dy=0 dh=-60 dv=0 dx=0 dy=0 dh=0 dv=0
PairPos2: "'kern' Horizontal Kerning lookup 15-2" uni064A dx=-60 dy=0 dh=-60 dv=0 dx=0 dy=0 dh=0 dv=0
PairPos2: "'kern' Horizontal Kerning lookup 15-2" uni06A9 dx=-226 dy=0 dh=-226 dv=0 dx=0 dy=0 dh=0 dv=0
PairPos2: "'kern' Horizontal Kerning lookup 15-2" uniFB8E dx=-226 dy=0 dh=-226 dv=0 dx=0 dy=0 dh=0 dv=0
PairPos2: "'kern' Horizontal Kerning lookup 15-2" uniFB90 dx=-226 dy=0 dh=-226 dv=0 dx=0 dy=0 dh=0 dv=0
PairPos2: "'kern' Horizontal Kerning lookup 15-2" uniFBFE dx=30 dy=0 dh=30 dv=0 dx=0 dy=0 dh=0 dv=0
PairPos2: "'kern' Horizontal Kerning lookup 15-2" uni0631 dx=-30 dy=0 dh=-30 dv=0 dx=0 dy=0 dh=0 dv=0
PairPos2: "'kern' Horizontal Kerning lookup 15-2" uni0632 dx=-30 dy=0 dh=-30 dv=0 dx=0 dy=0 dh=0 dv=0
PairPos2: "'kern' Horizontal Kerning lookup 15-2" uni0624 dx=-30 dy=0 dh=-30 dv=0 dx=0 dy=0 dh=0 dv=0
PairPos2: "'kern' Horizontal Kerning lookup 15-2" uni0648 dx=-30 dy=0 dh=-30 dv=0 dx=0 dy=0 dh=0 dv=0
PairPos2: "'kern' Horizontal Kerning lookup 15-2" uni0698 dx=-40 dy=0 dh=-40 dv=0 dx=0 dy=0 dh=0 dv=0
PairPos2: "'kern' Horizontal Kerning lookup 15-5" uni06C0 dx=-178 dy=0 dh=-178 dv=0 dx=0 dy=0 dh=0 dv=0
EndChar

StartChar: uniFEB2
Encoding: 65202 65202 189
GlifName: uniF_E_B_2
Width: 2554
VWidth: 2311
GlyphClass: 2
Flags: HW
AnchorPoint: "Anchor-10" 1693.64 1006.47 basechar 0
AnchorPoint: "Anchor-7" 686.95 -714.09 basechar 0
LayerCount: 2
Fore
SplineSet
690 -345 m 0
 998 -345 1152 -212 1152 54 c 0
 1152 148 1116 267 1045 411 c 1
 1196 495 l 1
 1278 282 l 2
 1306 214 1369 180 1469 180 c 0
 1564 180 1618 245 1631 373 c 2
 1650 564 l 5
 1768 564 l 5
 1793 372 l 2
 1810 245 1873 180 1983 180 c 0
 2084 180 2140 244 2151 373 c 2
 2170 584 l 5
 2288 584 l 5
 2313 372 l 2
 2328 247 2395 182 2513 180 c 2
 2560 180 l 2
 2574.99321267 179.680995475 2579 156 2579 109 c 2
 2579 75 l 2
 2579 27.0402521519 2576.45701824 0 2559 0 c 2
 2507 0 l 2
 2368 0 2275 47 2228 138 c 1
 2178 48 2097 0 1983 0 c 0
 1849 0 1757 52 1709 149 c 1
 1657 50 1578 0 1474 0 c 0
 1413 0 1355 17 1299 51 c 1
 1297 -327 1092 -518 686 -518 c 0
 323 -518 98 -339 98 17 c 0
 98 156 128 294 190 434 c 1
 339 379 l 1
 286 249 259 134 259 35 c 0
 259 -218 403 -345 690 -345 c 0
EndSplineSet
EndChar

StartChar: uniFEB3
Encoding: 65203 65203 190
GlifName: uniF_E_B_3
Width: 1592
VWidth: 2311
GlyphClass: 2
Flags: HW
AnchorPoint: "Anchor-10" 904.23 973.89 basechar 0
AnchorPoint: "Anchor-7" 805.43 -198.22 basechar 0
LayerCount: 2
Fore
SplineSet
1186 0 m 0
 1052 0 960 50 912 148 c 1
 854 50 771 0 662 0 c 0
 523 0 425 47 369 137 c 1
 302 46 199 0 61 0 c 2
 -4 0 l 2
 -36 0 -42 25 -42 74 c 2
 -42 108 l 2
 -42 156 -36 180 -4 180 c 2
 63 180 l 2
 208 180 285 242 298 373 c 2
 317 563 l 5
 435 563 l 5
 460 372 l 2
 477.056812469 241.565551711 540.669921875 179.98828125 660.345703125 179.98828125 c 0
 760.874023438 179.98828125 822.099609375 244.9921875 835 373 c 2
 854 563 l 5
 972 563 l 5
 997 371 l 2
 1013.72070584 242.584979131 1077.46875 180.98828125 1178.32324219 180.98828125 c 0
 1285.78222656 180.98828125 1334 222.895507812 1334 383 c 0
 1334 461.544921875 1301.50097656 616.596679688 1286 660 c 1
 1443 710 l 1
 1477.29101562 613.0390625 1497 521.408203125 1497 395 c 0
 1497 145.112304688 1398.88476562 0 1186 0 c 0
EndSplineSet
EndChar

StartChar: uniFEB4
Encoding: 65204 65204 191
GlifName: uniF_E_B_4
Width: 1756
VWidth: 2306
GlyphClass: 2
Flags: HW
AnchorPoint: "Anchor-7" 805.43 -198.22 basechar 0
AnchorPoint: "Anchor-10" 904.23 973.89 basechar 0
LayerCount: 2
Fore
SplineSet
298 373 m 2
 317 563 l 5
 435 563 l 5
 460 372 l 2
 477.056812469 241.565551711 540.669921875 179.98828125 660.345703125 179.98828125 c 0
 760.874023438 179.98828125 822.099609375 244.9921875 835 373 c 2
 854 563 l 1
 972 563 l 1
 997 371 l 2
 1014.18138289 242.644963122 1077.46830496 180.98828125 1188.32324219 180.98828125 c 0
 1287.87402344 180.98828125 1344.08496094 244.9921875 1355 373 c 2
 1374 583 l 1
 1492 583 l 1
 1517 371 l 2
 1532 247 1599 183 1717 181 c 2
 1763 180 l 2
 1775 180 1781 156 1781 108 c 2
 1781 74 l 2
 1781 25 1775 0 1763 0 c 2
 1711 0 l 2
 1572 0 1479 45 1432 137 c 1
 1382 47 1300 0 1186 0 c 0
 1052 0 960 50 912 148 c 1
 854 50 771 0 662 0 c 0
 523 0 425 47 369 137 c 1
 302 46 199 0 61 0 c 2
 -4 0 l 2
 -36 0 -42 25 -42 74 c 2
 -42 108 l 2
 -42 156 -36 180 -4 180 c 2
 63 180 l 2
 208 180 285 242 298 373 c 2
EndSplineSet
EndChar

StartChar: uniFEBA
Encoding: 65210 65210 197
GlifName: uniF_E_B_A_
Width: 2550
VWidth: 2311
GlyphClass: 2
Flags: HW
AnchorPoint: "Anchor-10" 1955.64 1084.47 basechar 0
AnchorPoint: "Anchor-7" 686.95 -714.09 basechar 0
LayerCount: 2
Fore
SplineSet
2239 411 m 0
 2239 517 2164 578 2060 578 c 0
 1827 577 1527 180 1527 180 c 1
 1710 180 l 2
 1980 180 2239 220 2239 411 c 0
2187 82 m 1
 2062 25 1895 0 1697 0 c 2
 1531 0 l 2
 1440 0 1363 17 1299 51 c 1
 1297 -327 1093 -517 688 -518 c 0
 323 -518 98 -340 98 18 c 0
 98 156 128 295 190 434 c 1
 339 379 l 1
 286 249 259 134 259 35 c 0
 259 -219 403 -345 691 -345 c 0
 998 -345 1152 -212 1152 53 c 0
 1152 147 1116 267 1045 411 c 1
 1196 495 l 1
 1277 282 l 2
 1292 245 1310 209 1342 206 c 1
 1342 206 1721 758 2060 758 c 0
 2275 758 2406 623 2406 411 c 0
 2406 319 2377 240 2323 180 c 1
 2557 180 l 2
 2569 180 2575 156 2575 107 c 2
 2575 73 l 2
 2575 24 2568 0 2556 0 c 2
 2520 0 l 2
 2349 0 2266 27 2187 82 c 1
EndSplineSet
EndChar

StartChar: uniFEBB
Encoding: 65211 65211 198
GlifName: uniF_E_B_B_
Width: 1680
VWidth: 2311
GlyphClass: 2
Flags: HW
AnchorPoint: "Anchor-10" 1120.38 1109.17 basechar 0
AnchorPoint: "Anchor-7" 780.518 -235 basechar 0
LayerCount: 2
Fore
SplineSet
1418 411 m 0
 1418 517 1343 578 1239 578 c 0
 1006 577 706 180 706 180 c 1
 889 180 l 2
 1159 180 1418 220 1418 411 c 0
521 206 m 1
 521 206 900 758 1239 758 c 0
 1454 758 1585 623 1585 411 c 0
 1585 115 1300 0 876 -0 c 2
 710 -0 l 2
 547 0 428 44 340 133 c 1
 274 44 176 0 48 0 c 2
 -4 0 l 2
 -36 0 -42 25 -42 74 c 2
 -42 108 l 2
 -42 156 -36 180 -4 180 c 2
 49 180 l 2
 185 180 253 243 256 369 c 2
 262 582 l 5
 415 608 l 5
 422 368 l 2
 424 284 442 220 521 206 c 1
EndSplineSet
EndChar

StartChar: uniFEBC
Encoding: 65212 65212 199
GlifName: uniF_E_B_C_
Width: 1729
VWidth: 2311
GlyphClass: 2
Flags: HW
AnchorPoint: "Anchor-7" 780.518 -235 basechar 0
AnchorPoint: "Anchor-10" 1120.38 1109.17 basechar 0
LayerCount: 2
Fore
SplineSet
1418 411 m 0
 1418 517 1343 578 1239 578 c 0
 1006 577 706 180 706 180 c 1
 889 180 l 2
 1159 180 1418 220 1418 411 c 0
710 0 m 2
 546 0 428 44 340 133 c 1
 274 44 176 0 48 0 c 2
 -4 0 l 2
 -36 0 -42 25 -42 74 c 2
 -42 108 l 2
 -42 156 -36 180 -4 180 c 2
 49 180 l 2
 185 180 253 243 256 369 c 2
 262 582 l 5
 415 608 l 5
 422 368 l 2
 424 284 441 219 521 206 c 1
 521 206 900 758 1239 758 c 0
 1454 758 1585 623 1585 411 c 0
 1585 319 1556 240 1502 180 c 1
 1736 180 l 2
 1748 180 1754 156 1754 107 c 2
 1754 73 l 2
 1754 24 1747 0 1735 0 c 2
 1699 0 l 2
 1528 0 1445 27 1366 82 c 1
 1241 25 1074 0 876 0 c 2
 710 0 l 2
EndSplineSet
EndChar

StartChar: uniFEC2
Encoding: 65218 65218 205
GlifName: uniF_E_C_2
Width: 1612
VWidth: 2311
GlyphClass: 2
Flags: HW
AnchorPoint: "Anchor-7" 732.918 -235.32 basechar 0
AnchorPoint: "Anchor-10" 335.13 1483.42 basechar 0
LayerCount: 2
Fore
SplineSet
1122 578 m 0
 889 577 589 180 589 180 c 1
 772 180 l 2
 1042 180 1301 220 1301 411 c 0
 1301 517 1226 578 1122 578 c 0
759 0 m 2
 653 0 l 2
 356 0 181 11 68 32 c 9
 67 180 l 1
 294 180 l 1
 261 1338 l 5
 436 1387 l 5
 436 229 l 1
 436 229 783 758 1122 758 c 0
 1337 758 1468 623 1468 411 c 0
 1468 319 1439 240 1385 180 c 1
 1619 180 l 2
 1631 180 1637 156 1637 107 c 2
 1637 73 l 2
 1637 24 1630 0 1618 0 c 2
 1582 0 l 2
 1411 0 1328 27 1249 82 c 1
 1124 25 957 0 759 0 c 2
EndSplineSet
EndChar

StartChar: uniFEC3
Encoding: 65219 65219 206
GlifName: uniF_E_C_3
Width: 1482
VWidth: 2311
GlyphClass: 2
Flags: HW
AnchorPoint: "Anchor-7" 615.363 -234.3 basechar 0
AnchorPoint: "Anchor-10" 255.043 1476.92 basechar 0
LayerCount: 2
Fore
SplineSet
1217 411 m 0
 1217 517 1142 578 1038 578 c 0
 805 577 505 180 505 180 c 1
 688 180 l 2
 958 180 1217 220 1217 411 c 0
210 180 m 1
 177 1338 l 5
 352 1387 l 5
 352 229 l 1
 352 229 699 758 1038 758 c 0
 1253 758 1384 623 1384 411 c 0
 1384 115 1099 0 675 0 c 2
 675 0 -4 0 -4 0 c 2
 -36 0 -42 25 -42 74 c 2
 -42 108 l 2
 -42 156 -36 180 -4 180 c 2
 210 180 l 1
EndSplineSet
EndChar

StartChar: uniFEC4
Encoding: 65220 65220 207
GlifName: uniF_E_C_4
Width: 1528
VWidth: 2311
GlyphClass: 2
Flags: HW
AnchorPoint: "Anchor-7" 615.363 -234.3 basechar 0
AnchorPoint: "Anchor-10" 255.043 1476.92 basechar 0
LayerCount: 2
Fore
SplineSet
1038 578 m 0
 806 577 505 180 505 180 c 1
 688 180 l 2
 958 180 1217 220 1217 411 c 0
 1217 517 1142 578 1038 578 c 0
675 0 m 2
 675 0 -4 0 -4 0 c 2
 -36 0 -42 25 -42 74 c 2
 -42 108 l 2
 -42 156 -36 180 -4 180 c 2
 210 180 l 1
 177 1338 l 5
 352 1387 l 5
 352 229 l 1
 352 229 700 758 1038 758 c 0
 1253 758 1384 623 1384 411 c 0
 1384 319 1355 240 1301 180 c 1
 1535 180 l 2
 1547 180 1553 156 1553 107 c 2
 1553 73 l 2
 1553 24 1546 0 1534 0 c 2
 1498 0 l 2
 1327 0 1244 27 1165 82 c 1
 1040 25 873 0 675 0 c 2
EndSplineSet
EndChar

StartChar: uniFECA
Encoding: 65226 65226 213
GlifName: uniF_E_C_A_
Width: 1218
VWidth: 2311
GlyphClass: 2
Flags: HW
AnchorPoint: "Anchor-7" 614.525 -781.648 basechar 0
AnchorPoint: "Anchor-10" 603.4 1212.21 basechar 0
LayerCount: 2
Fore
SplineSet
739.655273438 -628.865234375 m 4
 372.510742188 -628.865234375 96.458984375 -483.126750918 96.458984375 -144.31640625 c 4
 96.458984375 41.4609375 213.877929688 200.262695312 454.459960938 343.280273438 c 1
 267.298828125 472.013671875 176.717773438 586.234375 176.717773438 675.944335938 c 0
 176.717773438 835.00801213 335.543161336 908.587923102 626.083316508 908.587923102 c 0
 911.001077179 908.587923102 1061.52050781 849.979492188 1061.52050781 678.458984375 c 0
 1061.52050781 573.31640625 940.20703125 440.8359375 717.583007812 323.015625 c 1
 834.40234375 229.771484375 986.111328125 182.400390625 1172.70996094 180.90234375 c 2
 1225.37597656 180.479492188 l 2
 1237.37597656 180.3828125 1243.37597656 156.223632812 1243.37597656 108 c 2
 1243.37597656 74 l 2
 1243.12597656 24.666015625 1236.90332031 0 1224.62011719 0 c 2
 1170.72265625 0.5302734375 l 2
 928.2421875 2.916015625 724.426757812 95.4072265625 566 242 c 1
 374.422851562 124.409179688 265.005859375 19.2109375 265.005859375 -147.9140625 c 4
 265.005859375 -372.309186945 457.930664062 -459.674804688 739.012695312 -459.674804688 c 4
 835.76953125 -459.674804688 952.875 -445.845703125 1050.33105469 -418.1875 c 1
 1094.33984375 -573.599609375 l 1
 983.739257812 -616.443359375 842.178710938 -628.865234375 739.655273438 -628.865234375 c 4
899.19921875 671.767578125 m 0
 899.06640625 735.922851562 789.954101562 745.059570312 621.862304688 745.178710938 c 0
 452.784014261 745.178710938 346.915039062 721.991280889 346.915039062 676.893554688 c 0
 346.915039062 624.915039062 446.735351562 544.453125 601.885742188 435.309570312 c 1
 671.25390625 465.592773438 898.665039062 594.611328125 899.19921875 671.767578125 c 0
EndSplineSet
EndChar

StartChar: uniFECB
Encoding: 65227 65227 214
GlifName: uniF_E_C_B_
Width: 994
VWidth: 2311
GlyphClass: 2
Flags: HW
AnchorPoint: "Anchor-10" 498.841 1130.38 basechar 0
AnchorPoint: "Anchor-7" 471.696 -235.05 basechar 0
LayerCount: 2
Fore
SplineSet
523 662 m 24
 392.95703125 662 312 569.499023438 312 454 c 0
 312 333.953125 383.161132812 272.795898438 477 217 c 0
 488 211 506 207 529 207 c 0
 560 207 601 213 653 224 c 2
 898 278 l 1
 898 110 l 1
 613 36 352 0 117 0 c 2
 -4 0 l 2
 -36 0 -52 25 -52 74 c 2
 -52 108 l 2
 -52 156 -36 180 -4 180 c 2
 270 180 l 1
 187 254 146 341 146 461 c 0
 146 665.72265625 309.66796875 841 514 841 c 0
 653 841 764 785 845 673 c 1
 753 559 l 1
 686 627 602 662 523 662 c 24
EndSplineSet
EndChar

StartChar: uniFEDA
Encoding: 65242 65242 229
GlifName: uniF_E_D_A_
Width: 1956
VWidth: 2311
GlyphClass: 2
Flags: HW
AnchorPoint: "Anchor-10" 958.52 1302.01 basechar 0
AnchorPoint: "Anchor-7" 885.06 -201.16 basechar 0
LayerCount: 2
Fore
SplineSet
715 687 m 1
 763 682 815 676 860 676 c 0
 945 676 1044 709 1044 769 c 0
 1044 811 1001 824 956 831 c 0
 879 843 816 890 816 972 c 0
 816 1128 975 1166 1130 1175 c 1
 1130 1082 l 1
 1033 1076 912 1048 912 980 c 0
 912 925 966 916 1024 908 c 0
 1101 896 1140 853 1140 777 c 0
 1140 712 1102 658 1027 615 c 0
 979 588 920 574 848 574 c 0
 808 574 760 580 715 587 c 1
 715 687 l 1
1655 191 m 1
 1504.78003773 36.4733746518 1286.70070051 1.6296167404 907 0 c 0
 432 0 97 97 97 527 c 0
 97 598 108 673 131 752 c 1
 273 714 l 1
 261 632 255 569 255 525 c 0
 255 217 553 180 921 180 c 0
 1231 180 1610 184 1598 466 c 2
 1561 1339 l 5
 1738 1387 l 5
 1738 434 l 2
 1738 205 1827.08567208 185.227474151 1937 181 c 2
 1963 180 l 2
 1975 180 1981 156 1981 108 c 2
 1981 74 l 2
 1981 25 1975 0 1963 0 c 2
 1924 1 l 2
 1799.03088042 4.20433639947 1685 68 1655 191 c 1
EndSplineSet
EndChar

StartChar: uniFEDB
Encoding: 65243 65243 230
GlifName: uniF_E_D_B_
Width: 894
VWidth: 2311
GlyphClass: 2
Flags: HW
AnchorPoint: "Anchor-10" 233.03 1377.54 basechar 0
AnchorPoint: "Anchor-7" 295.74 -234.64 basechar 0
LayerCount: 2
Fore
SplineSet
237 1005 m 1
 585 620 l 2
 654 544 688 460 688 369 c 0
 688 123 539 0 241 0 c 2
 -4 0 l 2
 -36 0 -42 25 -42 74 c 2
 -42 108 l 2
 -42 156 -36 180 -4 180 c 2
 275 180 l 2
 447 180 534 240 534 358 c 0
 534 403 512 449 467 500 c 2
 78 935 l 1
 78 935 90 1122 123 1137 c 14
 834 1404 l 1
 834 1229 l 1
 237 1005 l 1
EndSplineSet
EndChar

StartChar: uniFEDC
Encoding: 65244 65244 231
GlifName: uniF_E_D_C_
Width: 1110
VWidth: 2311
GlyphClass: 2
Flags: HW
AnchorPoint: "Anchor-10" 233.03 1377.54 basechar 0
AnchorPoint: "Anchor-7" 295.74 -234.64 basechar 0
LayerCount: 2
Fore
SplineSet
237 1005 m 1
 887 284 l 2
 948 216 1010 180 1072 180 c 2
 1117 180 l 2
 1129 180 1135 156 1135 108 c 2
 1135 74 l 2
 1135 25 1129 0 1117 0 c 2
 1068 0 l 2
 947 1 817 92 680 272 c 1
 641 91 495 0 241 0 c 2
 -4 0 l 2
 -36 0 -42 25 -42 74 c 2
 -42 108 l 2
 -42 156 -36 180 -4 180 c 2
 275 180 l 2
 447 180 534 240 534 358 c 0
 534 403 512 450 467 500 c 2
 78 935 l 1
 78 935 90 1122 123 1137 c 14
 834 1404 l 1
 834 1229 l 1
 237 1005 l 1
EndSplineSet
EndChar

StartChar: uniFEDE
Encoding: 65246 65246 233
GlifName: uniF_E_D_E_
Width: 1478
VWidth: 2311
GlyphClass: 2
Flags: HW
AnchorPoint: "Anchor-10" 632.91 1035.85 basechar 0
AnchorPoint: "Anchor-7" 658.612 -680.916 basechar 0
LayerCount: 2
Fore
SplineSet
1239 375 m 2
 1239 220 1314 182 1463 181 c 2
 1485 180 l 2
 1497 180 1503 156 1503 108 c 2
 1503 74 l 2
 1503 24 1497 0 1485 0 c 2
 1467 1 l 2
 1348 3 1282 24 1238 67 c 1
 1227 -302 1038 -488 668 -488 c 0
 317 -488 98 -288 98 48 c 0
 98 170 132 309 200 464 c 1
 349 409 l 1
 296 279 269 164 269 65 c 0
 269 -173 416 -315 671 -315 c 0
 957 -315 1097 -163 1091 142 c 2
 1067 1335 l 5
 1239 1386 l 5
 1239 375 l 2
EndSplineSet
EndChar

StartChar: uniFEDF
Encoding: 65247 65247 234
GlifName: uniF_E_D_F_
Width: 561
VWidth: 2311
GlyphClass: 2
Flags: HW
AnchorPoint: "Anchor-10" 334.773 1473.4 basechar 0
AnchorPoint: "Anchor-7" 247.754 -202.99 basechar 0
LayerCount: 2
Fore
SplineSet
-4 180 m 2
 38 180 l 2
 206.303461713 180 285.893647942 283.038630229 279 480 c 2
 249 1331 l 5
 423 1387 l 5
 423 466 l 2
 423 175.06281136 315.655763083 0 47 0 c 2
 -4 0 l 2
 -36 0 -52 25 -52 74 c 2
 -52 108 l 2
 -52 156 -36 180 -4 180 c 2
EndSplineSet
EndChar

StartChar: uniFEE0
Encoding: 65248 65248 235
GlifName: uniF_E_E_0
Width: 638
VWidth: 2311
GlyphClass: 2
Flags: HW
AnchorPoint: "Anchor-10" 333.574 1472.16 basechar 0
AnchorPoint: "Anchor-7" 291.534 -255.99 basechar 0
LayerCount: 2
Fore
SplineSet
-4 180 m 2
 89 180 l 2
 224.077663936 180 286.920850714 264.611926424 282 427 c 2
 251 1332 l 5
 423 1386 l 5
 423 428 l 2
 423 263 492 180 632 180 c 2
 645 180 l 2
 657 180 663 156 663 108 c 2
 663 74 l 2
 663 25 657 0 645 0 c 2
 633 0 l 2
 522 0 430 38 358 114 c 1
 289 38 199 0 87 0 c 2
 -4 0 l 2
 -36 0 -52 25 -52 74 c 2
 -52 108 l 2
 -52 156 -36 180 -4 180 c 2
EndSplineSet
EndChar

StartChar: uniFEE2
Encoding: 65250 65250 237
GlifName: uniF_E_E_2
Width: 1187
VWidth: 2311
GlyphClass: 2
Flags: HW
AnchorPoint: "Anchor-10" 663.29 1013.64 basechar 0
AnchorPoint: "Anchor-7" 659.239 -312.747 basechar 0
LayerCount: 2
Fore
SplineSet
1194 180 m 2
 1206 180 1212 156 1212 108 c 2
 1212 74 l 2
 1212 24 1206 0 1194 0 c 2
 1165 0 l 2
 1071 2 1000 30 951 81 c 1
 920 -20 826 -87 719 -87 c 0
 494 -87 365 124 347 345 c 1
 272 305 240 214 240 68 c 0
 240 54 240 39 241 24 c 2
 258 -561 l 1
 96 -627 l 1
 96 86 l 2
 96 280 158 423 283 513 c 0
 412 601 549 648 702 648 c 0
 940.367878347 648 1002 493.909179688 1002 231 c 1
 1032 191 1098 180 1170 180 c 2
 1194 180 l 2
485 417 m 1
 497 231 582 81 718 81 c 0
 799 81 850 137 850 249 c 0
 850 377 826 478 701 478 c 0
 619 478 547 454 485 417 c 1
EndSplineSet
EndChar

StartChar: uniFEE3
Encoding: 65251 65251 238
GlifName: uniF_E_E_3
Width: 988
VWidth: 2311
GlyphClass: 2
Flags: HW
AnchorPoint: "Anchor-10" 496.711 1031.91 basechar 0
AnchorPoint: "Anchor-7" 500.552 -246.89 basechar 0
LayerCount: 2
Fore
SplineSet
613.66015625 -48.0498046875 m 0
 435.231445312 -48.0498046875 276 106 276 106 c 5
 208 37 173 -1.37160441505e-14 61 0 c 2
 -4 0 l 2
 -36 0 -42 25 -42 74 c 2
 -42 108 l 2
 -42 156 -36 180 -4 180 c 2
 77 180 l 2
 125 180 161 204 184 251 c 0
 248 381 297 475 332 534 c 0
 396.272460938 640.452148438 476.4375 694.009765625 571.275390625 694.009765625 c 0
 760.705078125 694.009765625 890 476.733398438 890 249 c 0
 890 76.7158203125 783.879882812 -48.0498046875 613.66015625 -48.0498046875 c 0
605 114 m 0
 680.479492188 114 731.709960938 170.862304688 731.709960938 251.879882812 c 0
 731.709960938 348.513671875 661.919921875 511.794921875 561.166015625 511.794921875 c 0
 520.778320312 511.794921875 483.642578125 483.610351562 449 428 c 0
 412 369 379 308 351 245 c 1
 449 158 534 114 605 114 c 0
EndSplineSet
EndChar

StartChar: uniFEE4
Encoding: 65252 65252 239
GlifName: uniF_E_E_4
Width: 1077
VWidth: 2311
GlyphClass: 2
Flags: HW
AnchorPoint: "Anchor-7" 500.552 -246.89 basechar 0
AnchorPoint: "Anchor-10" 496.711 1031.91 basechar 0
LayerCount: 2
Fore
SplineSet
605 114 m 0
 680 114 732 171 732 252 c 0
 732 349 662 512 561 512 c 0
 521 512 484 484 449 428 c 0
 412 369 379 308 351 245 c 1
 449 158 534 114 605 114 c 0
883 340 m 0
 902 215 888 180 1067 180 c 2
 1084 180 l 2
 1096 180 1102 156 1102 108 c 2
 1102 74 l 2
 1102 25 1096 0 1084 0 c 2
 1064 0 l 2
 968 0 896 27 847 78 c 1
 801 0 720 -48 614 -48 c 0
 436 -48 276 106 276 106 c 5
 208 37 173 0 61 0 c 2
 -4 0 l 2
 -36 0 -42 25 -42 74 c 2
 -42 108 l 2
 -42 156 -36 180 -4 180 c 2
 77 180 l 2
 125 180 161 204 184 251 c 0
 248 381 297 475 332 534 c 0
 396 640 476 694 571 694 c 0
 735 694 854 531 883 340 c 0
EndSplineSet
EndChar

StartChar: uniFEEA
Encoding: 65258 65258 245
GlifName: uniF_E_E_A_
Width: 1084
VWidth: 2311
GlyphClass: 2
Flags: HW
AnchorPoint: "Anchor-10" 676.887 1251.14 basechar 0
AnchorPoint: "Anchor-7" 442.753 -205.98 basechar 0
LayerCount: 2
Fore
SplineSet
474 219 m 0
 275.298828125 219 97 287.267578125 97 475 c 0
 97 626 247 769 638 849 c 1
 624 967 l 1
 786 1005 l 1
 844 410 l 2
 864.245117188 232.255859375 932 180 1054 180 c 2
 1091 180 l 2
 1103 180 1109 156 1109 108 c 2
 1109 74 l 2
 1109 25 1103 0 1091 0 c 2
 1053 0 l 2
 756 0 712 241 712 241 c 1
 618 226 549 219 474 219 c 0
690 412 m 1
 659 687 l 1
 364 632 262 562 262 488 c 0
 262 420 321 387 438 387 c 0
 542 387 613 396 690 412 c 1
EndSplineSet
EndChar

StartChar: uniFEEB
Encoding: 65259 65259 246
GlifName: uniF_E_E_B_
Width: 1260
VWidth: 2311
GlyphClass: 2
Flags: HW
AnchorPoint: "Anchor-10" 588.329 1229.2 basechar 0
AnchorPoint: "Anchor-7" 490.494 -241.623 basechar 0
LayerCount: 2
Fore
SplineSet
874 -36 m 0
 732 -36 585 -5 432 58 c 1
 318 19 176 0 30 0 c 2
 -4 0 l 2
 -36 0 -42 25 -42 74 c 2
 -42 108 l 2
 -42 156 -36 180 -4 180 c 2
 220 180 l 1
 167.981445312 244.77734375 141.97265625 315.334960938 141.97265625 388.836914062 c 0
 141.97265625 578.69140625 291.3359375 727.659179688 435 772 c 1
 403 792 l 1
 484 932 l 1
 815 712 l 2
 1052 553.66796875 1170.00585938 402.27734375 1170.00585938 258.815429688 c 0
 1170.00585938 75.7998046875 1047.953125 -36 874 -36 c 0
793 536 m 1
 792.006835938 391.953125 732.791015625 270.834960938 609 173 c 1
 705 145 785 131 848 131 c 0
 962 131 1019 174 1019 259 c 0
 1019 336 943 429 793 536 c 1
655 533 m 0
 655 610.1328125 601.4296875 646 533 646 c 0
 418.6171875 646 306 503.778320312 306 381 c 0
 306 310 347 260 430 232 c 1
 536.986328125 271.30078125 655 417.481445312 655 533 c 0
EndSplineSet
EndChar

StartChar: uniFEEC
Encoding: 65260 65260 247
GlifName: uniF_E_E_C_
Width: 994
VWidth: 2311
GlyphClass: 2
Flags: HW
AnchorPoint: "Anchor-7" 535.493 -703.658 basechar 0
AnchorPoint: "Anchor-10" 467.766 1110.88 basechar 0
LayerCount: 2
Fore
SplineSet
-4 180 m 2
 227 181 l 1
 227 491 267 800 522 800 c 0
 686 800 768 678 768 484 c 0
 768 302 695 152 598 73 c 0
 539 25 462 1 384 0 c 1
 404 -135 450 -245 533 -331 c 1
 615 10 752 180 956 180 c 2
 1001 180 l 2
 1013 180 1019 156 1019 108 c 2
 1019 74 l 2
 1019 25 1013 0 1001 0 c 2
 954 0 l 2
 802 0 695 -158 633 -474 c 1
 532 -530 l 1
 375 -426 270 -249 229 0 c 1
 -4 0 l 2
 -36 0 -42 25 -42 74 c 2
 -42 108 l 2
 -42 156 -36 180 -4 180 c 2
614 492 m 0
 614 572 595 634 525 634 c 0
 378 634 383 343 382 181 c 1
 555.93620751 190.154537237 614 290.370347374 614 492 c 0
EndSplineSet
EndChar

StartChar: uniFEEE
Encoding: 65262 65262 249
GlifName: uniF_E_E_E_
Width: 895
VWidth: 2311
GlyphClass: 2
Flags: HW
AnchorPoint: "Anchor-7" 316.38 -638.85 basechar 0
AnchorPoint: "Anchor-10" 430.5 1061.72 basechar 0
LayerCount: 2
Fore
SplineSet
101 -514 m 1
 46 -378 l 1
 398 -358 583 -178 613 0 c 1
 486 0 l 2
 215.294921875 0 102 81.041015625 102 279 c 0
 104.041992188 493.379882812 235.028320312 713 435 713 c 0
 667.16796875 713 771.415039062 479.603515625 779 180 c 1
 902 180 l 2
 914 180 920 156 920 108 c 2
 920 74 l 2
 920 25 914 0 902 0 c 2
 766 0 l 1
 721.198743622 -272.3734347 509.623046875 -514 101 -514 c 1
257 309 m 0
 257 183.647460938 362.630859375 171.114257812 488.890625 171.114257812 c 0
 526.337890625 171.114257812 570.325195312 172.360351562 621 175 c 1
 621 422.0078125 556.518554688 541.005859375 427.556640625 541.005859375 c 0
 326.1328125 541.005859375 257 414.07421875 257 309 c 0
EndSplineSet
EndChar

StartChar: uniFEFB
Encoding: 65275 65275 262
GlifName: uniF_E_F_B_
Width: 1153
VWidth: 2311
GlyphClass: 3
Flags: HW
AnchorPoint: "Anchor-6" 386.36 -192.28 baselig 1
AnchorPoint: "Anchor-6" 878.871 -191.57 baselig 0
AnchorPoint: "Anchor-9" 194.739 1381.91 baselig 1
AnchorPoint: "Anchor-9" 921.751 1466.28 baselig 0
LayerCount: 2
Fore
SplineSet
659.513671875 196.98828125 m 1
 803.171223958 226.329427083 871.143554687 366.004231771 863.430664062 616.012695312 c 2
 841.068359375 1331.36914062 l 5
 1014.87988281 1387.33203125 l 5
 1014.87988281 548.75 l 2
 1014.95996094 355.583333333 962.971679687 214.111002604 858.915039062 124.333007812 c 24
 762.971679687 41.4443359373 629.966796875 0 459.900390625 0 c 2
 206.091796875 0 l 1
 176.091796875 166.75 l 1
 519.025390625 166.75 l 1
 87.29296875 1174.34960938 l 5
 234 1265 l 5
 659.513671875 196.98828125 l 1
EndSplineSet
PairPos2: "'kern' Horizontal Kerning lookup 15-6" uni0639 dx=-60 dy=0 dh=-60 dv=0 dx=0 dy=0 dh=0 dv=0
PairPos2: "'kern' Horizontal Kerning lookup 15-6" uni063A dx=-60 dy=0 dh=-60 dv=0 dx=0 dy=0 dh=0 dv=0
LCarets2: 1 0
Ligature2: "'rlig' Required Ligatures in Arabic lookup 16 subtable" uniFEDF uniFE8E
EndChar

StartChar: uniFEFC
Encoding: 65276 65276 263
GlifName: uniF_E_F_C_
Width: 1238
VWidth: 2311
GlyphClass: 3
Flags: HW
AnchorPoint: "Anchor-6" 386.36 -192.28 baselig 1
AnchorPoint: "Anchor-6" 878.871 -191.57 baselig 0
AnchorPoint: "Anchor-9" 194.739 1381.91 baselig 1
AnchorPoint: "Anchor-9" 915.751 1470.28 baselig 0
LayerCount: 2
Fore
SplineSet
1015 549 m 2
 1015 350 1071 180 1233 180 c 2
 1245 180 l 2
 1257 180 1263 156 1263 108 c 2
 1263 74 l 2
 1263 25 1257 0 1245 0 c 2
 1232 0 l 2
 1064 0 963 75 937 216 c 1
 848 74 687 0 460 0 c 2
 206 0 l 1
 176 167 l 1
 519 167 l 1
 87 1174 l 5
 234 1265 l 5
 660 197 l 1
 806 226 873 365 865 616 c 2
 841 1331 l 5
 1015 1387 l 5
 1015 549 l 2
EndSplineSet
PairPos2: "'kern' Horizontal Kerning lookup 15-6" uni0639 dx=-60 dy=0 dh=-60 dv=0 dx=0 dy=0 dh=0 dv=0
PairPos2: "'kern' Horizontal Kerning lookup 15-6" uni063A dx=-60 dy=0 dh=-60 dv=0 dx=0 dy=0 dh=0 dv=0
LCarets2: 1 0
Ligature2: "'rlig' Required Ligatures in Arabic lookup 16 subtable" uniFEE0 uniFE8E
EndChar

StartChar: arabic_dot
Encoding: 65536 -1 264
GlifName: arabic_dot
Width: 165
VWidth: 2170
GlyphClass: 2
Flags: HW
LayerCount: 2
Fore
SplineSet
83.6396484375 237.734375 m 1
 229.043945312 92.330078125 l 1
 83.6396484375 -53.07421875 l 1
 -61.763671875 92.330078125 l 1
 83.6396484375 237.734375 l 1
EndSplineSet
EndChar

StartChar: arabic_2dots
Encoding: 65537 -1 265
GlifName: arabic_2dots
Width: 485
VWidth: 2170
GlyphClass: 2
Flags: HW
LayerCount: 2
Fore
SplineSet
397.290039062 230.607421875 m 1
 535.567382812 92.330078125 l 1
 397.290039062 -45.9482421875 l 1
 259.012695312 92.330078125 l 1
 397.290039062 230.607421875 l 1
96.3896484375 230.607421875 m 5
 234.66796875 92.330078125 l 5
 96.3896484375 -45.9482421875 l 5
 -41.8876953125 92.330078125 l 5
 96.3896484375 230.607421875 l 5
EndSplineSet
EndChar

StartChar: arabic_3dots
Encoding: 65538 -1 266
GlifName: arabic_3dots
Width: 488
VWidth: 2170
GlyphClass: 2
Flags: HW
LayerCount: 2
Fore
SplineSet
248.879882812 452.064453125 m 5
 380.03125 320.911132812 l 5
 248.879882812 189.759765625 l 5
 117.728515625 320.911132812 l 5
 248.879882812 452.064453125 l 5
401.879882812 223.379882812 m 1
 533.03125 92.228515625 l 1
 401.879882812 -38.9248046875 l 1
 270.728515625 92.228515625 l 1
 401.879882812 223.379882812 l 1
95.8798828125 223.379882812 m 1
 227.03125 92.228515625 l 1
 95.8798828125 -38.9248046875 l 1
 -35.271484375 92.228515625 l 1
 95.8798828125 223.379882812 l 1
EndSplineSet
EndChar

StartChar: arabic_3dots_a
Encoding: 65539 -1 267
GlifName: arabic_3dots_a
Width: 487
VWidth: 2170
GlyphClass: 2
Flags: HW
LayerCount: 2
Fore
SplineSet
248.879882812 -258.224609375 m 5
 117.728515625 -127.071289062 l 5
 248.879882812 4.080078125 l 5
 380.03125 -127.071289062 l 5
 248.879882812 -258.224609375 l 5
401.879882812 -29.5400390625 m 1
 270.728515625 101.611328125 l 1
 401.879882812 232.764648438 l 1
 533.03125 101.611328125 l 1
 401.879882812 -29.5400390625 l 1
95.8798828125 -29.5400390625 m 1
 -35.271484375 101.611328125 l 1
 95.8798828125 232.764648438 l 1
 227.03125 101.611328125 l 1
 95.8798828125 -29.5400390625 l 1
EndSplineSet
EndChar

StartChar: uni066E.fina
Encoding: 65540 -1 268
GlifName: uni066E_.fina
Width: 2012
VWidth: 2311
GlyphClass: 2
Flags: HW
AnchorPoint: "Anchor-10" 743.06 1127.31 basechar 0
AnchorPoint: "Anchor-7" 743.06 -186.56 basechar 0
LayerCount: 2
Fore
SplineSet
2019 180 m 2
 2031 180 2037 156 2037 108 c 2
 2037 74 l 2
 2037 25 2031 0 2019 0 c 2
 1956 0 l 2
 1808 0 1687 76 1618 220 c 1
 1478 79 1259 0 907 0 c 0
 432 0 97 97 97 527 c 0
 97 598 108 673 131 752 c 1
 273 714 l 1
 261 632 255 569 255 525 c 0
 255 216 550 181 921 181 c 0
 1323 181 1571 271 1609 576 c 1
 1730 576 l 1
 1740 454 1753 370 1771 323 c 0
 1807 230 1877 180 1979 180 c 2
 2019 180 l 2
EndSplineSet
EndChar

StartChar: uni06A1.fina
Encoding: 65543 -1 269
GlifName: uni06A_1.fina
Width: 1902
VWidth: 2311
GlyphClass: 2
Flags: HW
AnchorPoint: "Anchor-10" 562.8 1240.73 basechar 0
AnchorPoint: "Anchor-7" 675.22 -233.73 basechar 0
LayerCount: 2
Fore
SplineSet
1416 275 m 128
 1477 275 1596 376 1596 494 c 0
 1596 599 1507 690 1415 690 c 0
 1324 690 1236 599 1236 494 c 0
 1236 376 1354 275 1416 275 c 128
907 0 m 16
 680 0 511 24 399 71 c 0
 202 153 98 297 98 527 c 0
 98 598 109 673 132 752 c 1
 274 714 l 1
 262 632 256 569 256 525 c 0
 256 334 372 227 595 196 c 0
 666 186 774 181 921 181 c 8
 1017 181 1206 182 1236 204 c 1
 1143 265 1073 377 1073 496 c 0
 1073 688 1229 861 1416 861 c 0
 1603 861 1759 688 1759 496 c 0
 1759 377 1689 265 1596 204 c 1
 1633 184 1696 181 1808 181 c 2
 1909 181 l 2
 1921 181 1927 157 1927 108 c 2
 1927 74 l 2
 1927 25 1921 0 1909 0 c 2
 1812 0 l 2
 1648 0 1516 27 1416 103 c 1
 1328 27 1079 0 907 0 c 16
EndSplineSet
EndChar

StartChar: uni06A1.init
Encoding: 65544 -1 270
GlifName: uni06A_1.init
Width: 885
VWidth: 2311
GlyphClass: 2
Flags: HW
AnchorPoint: "Anchor-10" 443.042 1281.15 basechar 0
AnchorPoint: "Anchor-7" 416.542 -177.02 basechar 0
LayerCount: 2
Fore
SplineSet
420 359 m 4
 253.883789062 359 114.956054688 451.084960938 114.956054688 622.374023438 c 4
 114.956054688 849.356445312 244.716796875 1051.01171875 440.1484375 1051.01171875 c 4
 680.768554688 1051.01171875 787 784.279296875 787 537 c 4
 787 297 727 140 608 64 c 0
 541 21 426 0 264 0 c 2
 -4 0 l 2
 -36 0 -52 25 -52 74 c 2
 -52 108 l 2
 -52 157 -36 181 -4 181 c 2
 270 181 l 2
 411 181 499 196 537 226 c 0
 592 269 621 329 624 408 c 5
 624 408 546 359 420 359 c 4
264 636 m 4
 264 562.9609375 321.6328125 528.962890625 431.124023438 528.962890625 c 4
 550.389648438 528.962890625 627 586 627 586 c 5
 627 737.194335938 564.344726562 879.012695312 441.844726562 879.012695312 c 4
 345.830078125 879.012695312 264 775.624023438 264 636 c 4
EndSplineSet
EndChar

StartChar: uni06A1.medi
Encoding: 65545 -1 271
GlifName: uni06A_1.medi
Width: 1040
VWidth: 2311
GlyphClass: 2
Flags: HW
AnchorPoint: "Anchor-10" 554.056 1070.6 basechar 0
AnchorPoint: "Anchor-7" 504.056 -177.02 basechar 0
LayerCount: 2
Fore
SplineSet
554 275 m 132
 615 275 734 376 734 494 c 4
 734 599 645 690 553 690 c 4
 462 690 374 599 374 494 c 4
 374 376 492 275 554 275 c 132
554 861 m 4
 741 861 897 688 897 496 c 4
 897 377 827 265 734 204 c 5
 771 184 834 181 946 181 c 2
 1047 181 l 2
 1059 181 1065 157 1065 108 c 2
 1065 74 l 2
 1065 25 1059 0 1047 0 c 2
 950 0 l 2
 786 0 654 27 554 103 c 5
 466 27 311 0 129 0 c 2
 -4 0 l 2
 -36 0 -52 25 -52 74 c 2
 -52 108 l 2
 -52 157 -36 181 -4 181 c 2
 130 181 l 2
 262 181 344 182 374 204 c 5
 281 265 211 377 211 496 c 4
 211 688 367 861 554 861 c 4
EndSplineSet
EndChar

StartChar: uni066F.fina
Encoding: 65546 -1 272
GlifName: uni066F_.fina
Width: 1424
VWidth: 2311
GlyphClass: 2
Flags: HW
AnchorPoint: "Anchor-10" 897.8 949.18 basechar 0
AnchorPoint: "Anchor-7" 662.464 -662.77 basechar 0
LayerCount: 2
Fore
SplineSet
1151 0 m 1
 1016 0 l 2
 745 0 632 81.041015625 632 279 c 0
 634.041992188 493.379882812 765.028320312 713 965 713 c 0
 1197.16796875 713 1301.41503906 479.603515625 1309 180 c 1
 1431 180 l 2
 1443 180 1449 156 1449 108 c 2
 1449 74 l 2
 1449 25 1443 0 1431 0 c 2
 1301 2 l 1
 1299.9921875 -325.625976562 1135.05273438 -518.017578125 720.521484375 -518.017578125 c 0
 310.637695312 -518.017578125 98 -341.047851562 98 18 c 0
 98 156 128 295 190 434 c 1
 339 379 l 1
 286 249 259 134 259 35 c 0
 259 -218.115234375 391.732421875 -345.006835938 724.640625 -345.006835938 c 0
 1049.21777344 -345.006835938 1150.00390625 -211.016601562 1151 0 c 1
787 309 m 0
 787 183.647460938 892.630859375 171.114257812 1018.890625 171.114257812 c 0
 1056.33789062 171.114257812 1100.32519531 172.360351562 1151 175 c 1
 1151 422.0078125 1086.51855469 541.005859375 957.556640625 541.005859375 c 0
 856.1328125 541.005859375 787 414.07421875 787 309 c 0
EndSplineSet
EndChar

StartChar: arabic_gaf_bar
Encoding: 65550 -1 273
GlifName: arabic_gaf_bar
Width: 690
VWidth: 2170
GlyphClass: 2
Flags: HW
LayerCount: 2
Fore
SplineSet
669 1659 m 5
 0 1408.16308594 l 1
 0 1519.89648438 l 1
 669 1770.73339844 l 5
 669 1659 l 5
EndSplineSet
EndChar

StartChar: guillemotleft
Encoding: 171 171 283
GlifName: guillemotleft
Width: 976
VWidth: 2170
Flags: HW
LayerCount: 2
Fore
SplineSet
308 5 m 1
 178 211 112 376 112 499 c 128
 112 622 177 787 307 993 c 1
 457 993 l 1
 357.067802288 819.784190633 271 619.000089969 271 500 c 0
 271 376.866812519 357.75900344 180.32576059 457 5 c 1
 308 5 l 1
706 5 m 1
 575 211 510 376 510 499 c 0
 510 622 575 787 706 993 c 1
 855 993 l 1
 757.080456692 817.420129241 669 619.781361418 669 500 c 0
 669 377.893811038 755.837176037 180.187655667 855 5 c 1
 706 5 l 1
EndSplineSet
EndChar

StartChar: guillemotright
Encoding: 187 187 284
GlifName: guillemotright
Width: 976
VWidth: 2170
Flags: HW
LayerCount: 2
Fore
SplineSet
668 5 m 5
 519 5 l 5
 618 180 705 377 705 500 c 4
 705 619 619 820 519 993 c 5
 669 993 l 5
 799 787 864 622 864 499 c 132
 864 376 798 211 668 5 c 5
270 5 m 5
 121 5 l 5
 220 180 307 378 307 500 c 4
 307 620 219 817 121 993 c 5
 270 993 l 5
 401 787 466 622 466 499 c 4
 466 376 401 211 270 5 c 5
EndSplineSet
EndChar

StartChar: NameMe.302
Encoding: 65562 -1 293
GlifName: N_ameM_e.302
Width: 578
VWidth: 2311
Flags: HW
LayerCount: 2
Fore
SplineSet
-4 180 m 2
 59 180 l 2
 181.360351562 180 232.540039062 253.776367188 232.540039062 402.181640625 c 0
 232.540039062 410.234375 232.360351562 418.5078125 232 427 c 2
 201 1114 l 5
 373 1168 l 5
 373 428 l 2
 373 263 420 180 554 180 c 2
 585 180 l 2
 597 180 603 156 603 108 c 2
 603 74 l 2
 603 25 597 0 585 0 c 2
 545 0 l 2
 446 0 380 38 308 114 c 1
 239 38 163 0 58 0 c 2
 -4 0 l 2
 -36 0 -42 25 -42 74 c 2
 -42 108 l 2
 -42 156 -36 180 -4 180 c 2
EndSplineSet
EndChar

StartChar: NameMe.303
Encoding: 65563 -1 294
GlifName: N_ameM_e.303
Width: 521
VWidth: 2311
Flags: HW
LayerCount: 2
Fore
SplineSet
-4 180 m 2
 39 180 l 2
 194.850585938 180 245.834960938 284.703125 239 480 c 2
 209 1248 l 5
 383 1304 l 5
 383 466 l 2
 383 188.258789062 297.900390625 0 49 0 c 2
 -4 0 l 2
 -36 0 -42 25 -42 74 c 2
 -42 108 l 2
 -42 156 -36 180 -4 180 c 2
EndSplineSet
EndChar

StartChar: NameMe.65564
Encoding: 65564 -1 297
GlifName: N_ameM_e.65564
Width: 527
VWidth: 2311
Flags: HW
AnchorPoint: "Anchor-10" 216.907 1313.98 basechar 0
AnchorPoint: "Anchor-7" 264.947 -215.71 basechar 0
LayerCount: 2
Fore
SplineSet
534 180 m 2
 546 180 552 156 552 108 c 2
 552 74 l 2
 552 25 546 0 534 0 c 2
 514 0 l 2
 250.614257812 0 177.057520848 149.389416267 167 431 c 2
 138 1190 l 5
 311 1246 l 5
 311 445 l 2
 311 269 371 180 513 180 c 2
 534 180 l 2
EndSplineSet
EndChar

StartChar: NameMe.65565
Encoding: 65565 -1 298
GlifName: N_ameM_e.65565
Width: 716
VWidth: 2957
Flags: HW
LayerCount: 2
Fore
SplineSet
103.5 -249.299804688 m 1
 140.400390625 -257.400390625 177.299804688 -261 209.700195312 -261 c 0
 305.099609375 -261 370.799804688 -244.799804688 406.799804688 -216 c 0
 434.700195312 -193.5 448.200195312 -170.099609375 448.200195312 -145.799804688 c 0
 448.200195312 -133.200195312 439.200195312 -125.099609375 416.700195312 -124.200195312 c 2
 326.700195312 -122.400390625 l 2
 255.599609375 -120.599609375 219.599609375 -83.7001953125 219.599609375 -11.7001953125 c 0
 219.599609375 143.099609375 376.200195312 221.400390625 558 223.200195312 c 1
 549.900390625 106.200195312 l 1
 407.700195312 103.5 340.200195312 67.5 331.200195312 -8.099609375 c 1
 429.299804688 -11.7001953125 l 2
 510.299804688 -13.5 558 -54.900390625 558 -135.900390625 c 0
 558 -184.5 535.5 -232.200195312 493.200195312 -279 c 0
 433.799804688 -343.799804688 337.5 -376.200195312 203.400390625 -376.200195312 c 0
 166.5 -376.200195312 126.900390625 -372.599609375 86.400390625 -366.299804688 c 1
 103.5 -249.299804688 l 1
EndSplineSet
EndChar

StartChar: uni060D
Encoding: 1549 1549 299
Width: 828
VWidth: 4036
Flags: HW
LayerCount: 2
Fore
SplineSet
611 1457 m 5
 754 1414 l 5
 198 -211 l 5
 55 -168 l 5
 611 1457 l 5
EndSplineSet
EndChar

StartChar: NameMe.65541
Encoding: 65541 -1 300
Width: 598
VWidth: 2317
Flags: HW
AnchorPoint: "Anchor-10" 243.546 1080.67 basechar 0
AnchorPoint: "Anchor-7" 327.466 -116.07 basechar 0
LayerCount: 2
Fore
SplineSet
45 0 m 6
 -2 0 l 6
 -35 0 -42 25 -42 74 c 6
 -42 108 l 6
 -42 156 -36 180 -4 180 c 6
 49 180 l 6
 279 180 339 186 339 364 c 4
 339 490 294 696 294 696 c 5
 449 742 l 5
 449 742 500 583 500 415 c 4
 500 107 387 0 45 0 c 6
EndSplineSet
EndChar

StartChar: NameMe.65542
Encoding: 65542 -1 301
Width: 704
VWidth: 2311
Flags: HW
AnchorPoint: "Anchor-10" 309.126 1124.13 basechar 0
AnchorPoint: "Anchor-7" 339.126 -123.49 basechar 0
LayerCount: 2
Fore
SplineSet
710 0 m 2
 677 0 l 2
 573 0 511 43 431 130 c 1
 353 43 252 0 129 0 c 2
 -6 0 l 2
 -36 0 -42 25 -42 74 c 2
 -42 108 l 2
 -42 156 -37 180 -6 180 c 2
 133 180 l 2
 275 180 347 243 350 367 c 2
 355 582 l 5
 509 608 l 5
 518 367 l 2
 522 243 586 180 680 180 c 2
 710 180 l 2
 722 180 728 156 728 108 c 2
 728 74 l 2
 728 25 722 0 710 0 c 2
EndSplineSet
EndChar

StartChar: uniFBFD.compact
Encoding: 65575 -1 321
Width: 1411
VWidth: 2311
Flags: HW
AnchorPoint: "Anchor-10" 741.849 620.691 basechar 0
AnchorPoint: "Anchor-7" 713.391 -779.455 basechar 0
LayerCount: 2
Fore
SplineSet
263 15 m 0
 263 -217.545898438 407.2109375 -349.009765625 714.576171875 -349.009765625 c 0
 947.389648438 -349.009765625 1215 -292.498046875 1215 -186 c 0
 1215 -163 1172.67216881 -151.696737003 1135 -136 c 2
 875 -36 l 2
 845.180412371 -24.5309278351 872 180 930 180 c 10
 1418 180 l 2
 1429 180 1436 156 1436 108 c 2
 1436 74 l 2
 1436 25 1430 0 1418 0 c 2
 1136 0 l 1
 1222 -30.3994140625 l 2
 1288.03613281 -53.552734375 1368 -90.2852164191 1368 -176 c 0
 1368 -442 1001 -524 717 -524 c 0
 339 -524 97 -336 97 16 c 0
 97 115 122 271 191 419 c 1
 338 359 l 1
 273 212 263 102 263 15 c 0
EndSplineSet
EndChar

StartChar: uniFECC.compact
Encoding: 65579 -1 324
Width: 1099
VWidth: 2311
Flags: HW
AnchorPoint: "Anchor-10" 548.215 1135.79 basechar 0
AnchorPoint: "Anchor-7" 577.375 -203.35 basechar 0
LayerCount: 2
Fore
SplineSet
-4 180 m 6
 123 180 l 6
 295 180 409 200 467 239 c 5
 257 338 153 444 152 559 c 4
 152 730.243274932 359.048828125 802 591 802 c 6
 604 802 l 6
 816.490234375 802 1040 757.20626291 1040 570 c 4
 1040 455 942 345 748 238 c 5
 819 200 924 180 1062 180 c 6
 1107 180 l 6
 1114 180 1124 156 1124 108 c 6
 1124 74 l 6
 1124 25 1115 0 1107 0 c 6
 1058 0 l 6
 883 1 732 49 609 143 c 5
 485 48 321 0 117 0 c 6
 -4 0 l 6
 -36 0 -52 25 -52 74 c 6
 -52 108 l 6
 -52 156 -36 180 -4 180 c 6
880 545 m 4
 880 609 788 631 606 631 c 6
 585 631 l 6
 401.999970465 631 310.991847987 603.303511854 310.991847987 547.910535562 c 4
 310.991847987 483.643950521 534.181157803 371.916388706 612 336 c 5
 671.437939771 360.925587646 880 470.273661109 880 545 c 4
EndSplineSet
EndChar

